<?xml version="1.0" encoding="UTF-8"?>
<svg id="Layer_2" xmlns="http://www.w3.org/2000/svg" viewBox="0 0 999.98 237.65">
  <defs>
    <style>
      .cls-1 {
        fill: #fff;
      }
    </style>
  </defs>
  <g id="Layer_1-2" data-name="Layer_1">
    <g>
      <path class="cls-1" d="M370.91,62.22h.99V2.99h-58.1v29.63c21,2.99,41.59,12.42,57.11,29.59Z"/>
      <path class="cls-1" d="M371.9,119.96h-.99c-11.53,36.05-37.23,59.07-68.24,59.07-38.09,0-57.5-19.72-57.5-60.82V2.99h-76.73L0,209.5v.99h102.89v-.99c-16.77-17.99-19.07-55.49,13.52-95.46L187.08,27.41v92.55c0,67.18,36.09,93.54,96.37,93.54s90.69-40.42,88.45-93.54Z"/>
      <path class="cls-1" d="M685.78,145.83h-19.87v.99c5.64,2.96,6.56,7.89,2.61,18l-8.39,21.63-8.42-21.63c-3.95-10.15-2.83-14.68,1.63-18v-.99h-32.13v.99c5.33,2.77,7.35,6.83,11.77,18.04l18.02,45.65h4.12l18.02-45.65c4.74-12,5.94-14.85,12.61-18.04v-.99h.02Z"/>
      <path class="cls-1" d="M818.79,157.52c0-5.01,3.33-8.54,9.59-8.54,7.4,0,13.34,6.03,18.51,15.36h1.66v-16.4c-6.38-2-12.66-3.4-19.28-3.4-12.75,0-23.73,8.08-23.73,19.8,0,22.07,32.43,19.73,32.43,33.22,0,7.06-4.66,9.81-10.72,9.81-9.05,0-16.44-8.53-21.58-18.64h-1.66l1.12,19.05c5.72,2.53,13.28,4.04,21.61,4.04,14.98,0,25.49-8.49,25.49-20.69,0-22.45-33.45-20.48-33.45-33.6h0Z"/>
      <path class="cls-1" d="M717.2,144.53c-19.66,0-33.04,15.31-33.04,32.91s11.53,34.37,31.41,34.37,26.94-15.35,27.85-22.95h-.99c-3.5,7.1-11.22,10.5-18.53,10.5-15.95,0-21.59-10.54-22.44-24.35h41.9c1.34-19.6-10.19-30.48-26.15-30.48ZM726.12,170.81h-24.76c.16-12.37,5.76-22.09,13.76-22.09,7.27,0,11.55,7.93,11,22.09Z"/>
      <path class="cls-1" d="M980.13,145.83v.99c5.64,2.96,6.57,7.89,2.62,18l-8.4,21.63-8.41-21.63c-3.95-10.15-2.83-14.68,1.63-18v-.99h-47.98v-19.05h-.99l-24.27,22.51v.99h7.33v41.2c0,12.67,7.2,20.3,19.09,20.3,11.11,0,18.21-7.16,20.83-17.76h-.99c-2.83,4.38-7.74,6.75-12.1,6.72-5.54-.04-8.9-4.12-8.9-11.85v-38.6h12.8c6.75,0,9.83,1.93,12.32,8.25l20.11,50.93c-3.94,9.99-9.43,18.17-23.87,10.87h-.99v16.3c2.19.56,4.48,1.02,7.28,1.02,10.32,0,14.53-7.98,22.09-27.15l18.02-45.65c4.74-12,5.94-14.85,12.61-18.04v-.99h-19.87.02Z"/>
      <path class="cls-1" d="M481.57,120.94c8.46,2.9,12.47,6.4,12.47,13.58v38.86c0,17.78-7.61,30.17-22.77,30.17-16.15,0-22.19-11.96-22.19-30.2v-38.82c0-7.19,4.01-10.68,12.47-13.58v-.99h-40.76v.99c5.61,3.67,8.63,6.32,8.63,13.58v40.08c0,21.24,9.8,37.2,34.68,37.2,26.35,0,35.09-16.21,35.09-37.81v-39.49c0-7.26,3.04-10.52,8.52-13.58v-.99h-26.15v.99h0Z"/>
      <path class="cls-1" d="M574.19,197.75v-32.66c0-12.74-7.9-20.56-20.17-20.56-8.51,0-15.14,4.35-19.93,10.62v-10.62h-.99l-23.98,5.89v.99c5,2.64,7.52,6.25,7.52,12.76v33.59c0,5.93-3.03,8.97-7.47,11.75v.99h32.86v-.99c-4.43-2.78-7.47-5.89-7.47-11.76v-36.26c2.48-4.23,7.07-7.61,11.61-7.61,7.29,0,10.06,4.72,10.06,14.07v29.79c0,5.93-3.03,8.97-7.47,11.75v1h32.86v-1c-4.43-2.78-7.47-5.88-7.47-11.75h0Z"/>
      <path class="cls-1" d="M591.91,127.86c0,6.01,4.88,10.89,10.89,10.89s10.89-4.88,10.89-10.89-4.88-10.89-10.89-10.89-10.89,4.88-10.89,10.89Z"/>
      <path class="cls-1" d="M611.76,197.75v-53.22h-.99l-24.47,5.89v.99c5.01,2.64,7.52,6.25,7.52,12.76v33.58c0,5.93-3.03,8.97-7.47,11.75v.99h32.86v-.99c-4.43-2.78-7.47-5.89-7.47-11.76h0Z"/>
      <path class="cls-1" d="M874.82,138.73c6,0,10.89-4.88,10.89-10.89s-4.88-10.89-10.89-10.89-10.89,4.88-10.89,10.89,4.88,10.89,10.89,10.89Z"/>
      <path class="cls-1" d="M883.78,197.75v-53.22h-.99l-24.47,5.89v.99c5,2.64,7.52,6.25,7.52,12.76v33.58c0,5.93-3.03,8.97-7.47,11.75v.99h32.86v-.99c-4.43-2.78-7.47-5.89-7.47-11.76h0Z"/>
      <path class="cls-1" d="M793.1,144.53c-6.42,0-13.92,4.7-18.13,14.53v-14.53h-.99l-23.98,5.89v.99c5.01,2.64,7.52,6.25,7.52,12.76v33.58c0,5.93-3.03,8.97-7.47,11.75v.99h35.72v-.99c-6.02-2.63-10.31-6.04-10.31-11.76v-33.05c5.7-5.08,14.73-6.71,22.2.15h.99v-18.17c-1.17-1.46-3.42-2.15-5.54-2.15h0Z"/>
      <path class="cls-1" d="M572.09,80.78V2.99h-.99l-24.47,5.89v.99c5,2.64,7.52,6.25,7.52,12.76v8.92c-3.36-2.56-8.39-3.97-13.57-3.97-16.47,0-28.9,12.98-28.9,34.56,0,20.15,9.55,32.73,24.63,32.73,8.09,0,14.17-3.76,18.34-9.83v8.52h24.9v-.99c-4.43-2.78-7.47-5.89-7.47-11.76h0ZM545.18,85.31c-11.61,0-15.23-13.17-15.23-26.42,0-19.28,7.34-25.92,14.33-25.92,5.67,0,9.9,6.12,9.9,13.78v34.84c-2.6,2.02-6.02,3.72-8.99,3.72Z"/>
      <path class="cls-1" d="M852.2,80.78V2.99h-.99l-24.47,5.89v.99c5,2.64,7.52,6.25,7.52,12.76v8.92c-3.36-2.56-8.39-3.97-13.57-3.97-16.47,0-28.9,12.98-28.9,34.56,0,20.15,9.55,32.73,24.63,32.73,8.09,0,14.17-3.76,18.34-9.83v8.52h24.9v-.99c-4.43-2.78-7.47-5.89-7.47-11.76h0ZM825.28,85.31c-11.61,0-15.23-13.17-15.23-26.42,0-19.28,7.34-25.92,14.33-25.92,5.67,0,9.9,6.12,9.9,13.78v34.84c-2.6,2.02-6.02,3.72-8.99,3.72Z"/>
      <path class="cls-1" d="M451.39,92.54c-8.67-3.09-14.92-6.75-7.16-25.54h31.67l3.1,7.51c4.32,10.48.81,15.81-7.06,18.04v.99h39.51v-.99c-4.7-2.89-7.5-7.11-10.64-14.63L469.51,2.99h-4.03l-26.93,64.72c-6.64,15.95-9.45,20.98-17.76,24.82v.99h30.6v-.99h0ZM460.06,28.67l13.86,33.55h-27.73l13.86-33.55h0Z"/>
      <path class="cls-1" d="M770.44,21.77c6,0,10.89-4.88,10.89-10.89s-4.88-10.89-10.89-10.89-10.89,4.88-10.89,10.89,4.88,10.89,10.89,10.89Z"/>
      <path class="cls-1" d="M761.48,47.19v33.58c0,5.93-3.03,8.97-7.47,11.75v.99h32.86v-.99c-4.43-2.78-7.47-5.89-7.47-11.76V27.57h-.99l-24.47,5.89v.99c5,2.64,7.52,6.25,7.52,12.76h0Z"/>
      <path class="cls-1" d="M656.64,22.62v58.16c0,5.93-3.03,8.97-7.47,11.75v.99h32.86v-.99c-4.43-2.78-7.47-5.89-7.47-11.76V2.99h-.99l-24.47,5.89v.99c5,2.64,7.52,6.25,7.52,12.76h0Z"/>
      <path class="cls-1" d="M615.59,94.85c19.87,0,26.95-15.35,27.86-22.95h-.99c-3.5,7.1-11.22,10.5-18.53,10.5-15.95,0-21.6-10.54-22.44-24.35h41.9c1.34-19.6-10.19-30.48-26.15-30.48-19.67,0-33.04,15.31-33.04,32.91s11.53,34.37,31.4,34.37ZM615.16,31.74c7.27,0,11.55,7.93,11,22.09h-24.76c.16-12.37,5.76-22.09,13.76-22.09Z"/>
      <path class="cls-1" d="M895.69,94.85c19.87,0,26.95-15.35,27.86-22.95h-.99c-3.5,7.1-11.23,10.5-18.53,10.5-15.95,0-21.6-10.54-22.44-24.35h41.9c1.34-19.6-10.19-30.48-26.15-30.48-19.67,0-33.04,15.31-33.04,32.91s11.53,34.37,31.4,34.37ZM895.26,31.74c7.27,0,11.55,7.93,11,22.09h-24.76c.16-12.37,5.76-22.09,13.76-22.09Z"/>
      <path class="cls-1" d="M741.83,80.78v-34.34c0-12.04-8.77-18.88-23.25-18.88-24.63,0-30.5,15.94-26.46,24.6l15.99-3.84v-.99c-2.81-7.78.08-15.74,7.53-15.74,6.02,0,8.25,5.69,8.25,11.48v11.25c-22.19,6.24-35.42,12.78-35.42,25.64,0,9.86,6.93,14.88,17.07,14.88,5.79,0,13.18-1.8,18.85-9.71v8.38h24.92v-.99c-4.43-2.78-7.47-5.89-7.47-11.76h0ZM723.9,79.73c-3.1,3.9-7.22,6.82-11.24,6.82-4.77,0-7.29-4.44-7.29-9.74,0-9.7,9.72-15.09,18.53-18.21v21.14Z"/>
    </g>
  </g>
</svg>