<?xml version="1.0" encoding="UTF-8"?>
<svg id="Layer_2" xmlns="http://www.w3.org/2000/svg" viewBox="0 0 422.72 363.08">
  <defs>
    <style>
      .cls-1 {
        fill: #140f50;
        font-family: Lato-Regular, Lato;
        font-size: 10px;
      }

      .cls-2 {
        stroke: #93278f;
      }

      .cls-2, .cls-3, .cls-4, .cls-5 {
        stroke-linecap: round;
      }

      .cls-2, .cls-3, .cls-4, .cls-5, .cls-6 {
        fill: none;
        stroke-miterlimit: 10;
      }

      .cls-3 {
        stroke: #ed1c24;
      }

      .cls-4 {
        stroke: #09892a;
      }

      .cls-5 {
        stroke: #1448ff;
      }

      .cls-6 {
        stroke: gray;
        stroke-width: .5px;
      }
    </style>
  </defs>
  <g id="Layer_1-2" data-name="Layer_1">
    <g>
      <g id="Graph_border_and_lines">
        <polyline class="cls-6" points="410.81 5.33 410.81 343.56 31.23 343.56 31.23 5.33 41.82 5.33"/>
        <line class="cls-6" x1="31.23" y1="121.04" x2="41.83" y2="121.04"/>
        <line class="cls-6" x1="31.23" y1="230.96" x2="41.83" y2="230.96"/>
        <g>
          <line class="cls-6" x1="31.23" y1="307.88" x2="36.53" y2="307.88"/>
          <line class="cls-6" x1="31.23" y1="286.88" x2="36.53" y2="286.88"/>
          <line class="cls-6" x1="31.23" y1="272.88" x2="36.53" y2="272.88"/>
          <line class="cls-6" x1="31.23" y1="262.88" x2="36.53" y2="262.88"/>
          <line class="cls-6" x1="31.23" y1="254.88" x2="36.53" y2="254.88"/>
          <line class="cls-6" x1="31.23" y1="247.88" x2="36.53" y2="247.88"/>
          <line class="cls-6" x1="31.23" y1="241.88" x2="36.53" y2="241.88"/>
          <line class="cls-6" x1="31.23" y1="235.88" x2="36.53" y2="235.88"/>
        </g>
        <g>
          <line class="cls-6" x1="87.88" y1="343.53" x2="87.88" y2="338.23"/>
          <line class="cls-6" x1="121.63" y1="343.53" x2="121.63" y2="338.23"/>
          <line class="cls-6" x1="146.14" y1="343.53" x2="146.14" y2="338.23"/>
          <line class="cls-6" x1="163.64" y1="343.53" x2="163.64" y2="338.23"/>
          <line class="cls-6" x1="177.64" y1="343.53" x2="177.64" y2="338.23"/>
          <line class="cls-6" x1="191.9" y1="343.53" x2="191.9" y2="338.23"/>
          <line class="cls-6" x1="205.4" y1="343.53" x2="205.4" y2="338.23"/>
          <line class="cls-6" x1="213.9" y1="343.53" x2="213.9" y2="338.23"/>
        </g>
        <g>
          <line class="cls-6" x1="278.64" y1="343.53" x2="278.64" y2="338.23"/>
          <line class="cls-6" x1="312.53" y1="343.53" x2="312.53" y2="338.23"/>
          <line class="cls-6" x1="337.13" y1="343.53" x2="337.13" y2="338.23"/>
          <line class="cls-6" x1="354.7" y1="343.53" x2="354.7" y2="338.23"/>
          <line class="cls-6" x1="368.76" y1="343.53" x2="368.76" y2="338.23"/>
          <line class="cls-6" x1="383.06" y1="343.53" x2="383.06" y2="338.23"/>
          <line class="cls-6" x1="396.62" y1="343.53" x2="396.62" y2="338.23"/>
          <line class="cls-6" x1="405.15" y1="343.53" x2="405.15" y2="338.23"/>
        </g>
        <g>
          <line class="cls-6" x1="31.23" y1="197.88" x2="36.53" y2="197.88"/>
          <line class="cls-6" x1="31.23" y1="176.88" x2="36.53" y2="176.88"/>
          <line class="cls-6" x1="31.23" y1="162.88" x2="36.53" y2="162.88"/>
          <line class="cls-6" x1="31.23" y1="152.88" x2="36.53" y2="152.88"/>
          <line class="cls-6" x1="31.23" y1="144.88" x2="36.53" y2="144.88"/>
          <line class="cls-6" x1="31.23" y1="137.88" x2="36.53" y2="137.88"/>
          <line class="cls-6" x1="31.23" y1="131.88" x2="36.53" y2="131.88"/>
          <line class="cls-6" x1="31.23" y1="125.88" x2="36.53" y2="125.88"/>
        </g>
        <g>
          <line class="cls-6" x1="31.23" y1="83.58" x2="36.53" y2="83.58"/>
          <line class="cls-6" x1="31.23" y1="62.58" x2="36.53" y2="62.58"/>
          <line class="cls-6" x1="31.23" y1="48.58" x2="36.53" y2="48.58"/>
          <line class="cls-6" x1="31.23" y1="38.58" x2="36.53" y2="38.58"/>
          <line class="cls-6" x1="31.23" y1="30.58" x2="36.53" y2="30.58"/>
          <line class="cls-6" x1="31.23" y1="23.58" x2="36.53" y2="23.58"/>
          <line class="cls-6" x1="31.23" y1="17.58" x2="36.53" y2="17.58"/>
          <line class="cls-6" x1="31.23" y1="11.58" x2="36.53" y2="11.58"/>
        </g>
        <line class="cls-6" x1="222.02" y1="332.96" x2="222.02" y2="343.56"/>
      </g>
      <text class="cls-1" transform="translate(0 343.56)"><tspan x="0" y="0">0.01</tspan></text>
      <text class="cls-1" transform="translate(5.8 233.88)"><tspan x="0" y="0">0.1</tspan></text>
      <text class="cls-1" transform="translate(13.72 124.04)"><tspan x="0" y="0">1</tspan></text>
      <text class="cls-1" transform="translate(7.92 8.58)"><tspan x="0" y="0">10</tspan></text>
      <text class="cls-1" transform="translate(26.01 361.26)"><tspan x="0" y="0">10</tspan></text>
      <text class="cls-1" transform="translate(214.02 361.26)"><tspan x="0" y="0">100</tspan></text>
      <text class="cls-1" transform="translate(399.52 361.26)"><tspan x="0" y="0">1000</tspan></text>
      <path class="cls-3" d="M405.45,57.16c-43.27,11.81-87.35,20.67-131.83,26.49-15.89,2.08-31.9,3.77-47.92,3.34-48.22-1.3-93.62-21.62-137.54-41.57-17.26-7.84-32.36-14.7-49.62-22.55"/>
      <path class="cls-2" d="M405.28,151.05c-43.2,15.55-88,27.94-133.05,36.8-42.92,8.43-87.76,13.69-130.03,2.47-17.09-4.53-33.36-11.66-49.55-18.76-18.58-8.15-35.53-15.58-54.11-23.73"/>
      <path class="cls-5" d="M405.28,259.15c-60.25,15.79-124.47,23.92-183.84,5.1-10.79-3.42-21.28-7.69-31.72-12.06-52.51-21.97-100.06-44.42-151.18-69.45"/>
      <path class="cls-4" d="M405.27,247.91c-33.32,9.04-58,17-102.59,31.04-38.65,12.17-54.09,25.49-111.75,20.48-53.92-4.69-103.18-24.41-152.39-46.95"/>
    </g>
  </g>
</svg>