<?xml version="1.0" encoding="UTF-8"?>
<svg xmlns="http://www.w3.org/2000/svg" xmlns:xlink="http://www.w3.org/1999/xlink" version="1.1" viewBox="0 0 1920 1920">
  <defs>
    <style>
      .cls-1 {
        fill: #fff;
      }

      .cls-2 {
        opacity: .5;
      }
    </style>
  </defs>
  <!-- Generator: Adobe Illustrator 28.7.1, SVG Export Plug-In . SVG Version: 1.2.0 Build 142)  -->
  <g>
    <g id="Layer_1">
      <g id="bones">
        <g id="bone-6">
          <image id="shadow" class="cls-2" width="297" height="294" transform="translate(508 1342)" xlink:href="evolutionary-bio-hover-1.png"/>
          <path id="outline" class="cls-1" d="M774.2,1546.4c-.2-.3-.5-.7-.7-1-1.9-5.1-4.2-13.4-6.4-21.6-2.8-10.2-5.5-19.9-8.3-27-2.2-5.6-5.8-11.3-9.7-17.4-2-3.2-5.3-8.3-7.2-12.1,3.6-4.9,8-11.5,7.9-20.2-.2-19-18.4-41.8-24.8-48.2-9.8-10-38.9-32.3-61.5-33.8-.7,0-1.4,0-2.1,0-7.6,0-14.7,2.7-20.9,5.1-1.7.6-4.2,1.6-5.2,1.8-.2,0-1.3.2-3.8.2s-5.6-.1-8.8-.3c-3.8-.2-7.7-.3-11.7-.3-8.3,0-19,.7-27.7,5.9l-2.1,1.3-.5.5c-9.7,7.3-14.4,19.6-18.6,30.6-.9,2.4-2.2,5.7-3.1,7.6-1.3,1-3.5,2.5-5,3.5-4,2.7-8.4,5.7-12.2,9.3-11.5,11.1-10.5,22.3-8.9,28,1.6,5.7,6.7,15.9,22.5,20.1,5.7,1.5,11.7,2.1,17.5,2.6,1.3.1,2.8.3,4.2.4,1.2,4.1,2.7,8.9,4.5,13.9,9.3,26.9,16.7,35.5,22.1,40,7,5.8,15.5,6.7,21.7,7.3.6,0,1.3.1,2,.2,3.6,2.9,8.7,9,13.6,14.9,11.3,13.5,24.2,28.9,41.1,34.9.9.3,1.8.6,2.8.8,2.2.5,4.4.8,6.9.8h.2c1.5,0,3,0,4.3-.2.6.6,1.1,1.3,1.6,1.8,1.1,1.3,2.3,2.6,3.6,4,3.8,4.2,9.1,9.2,16.3,11.6,2.9,1,6,1.5,9.5,1.5,8.4,0,24.2-3.4,32.7-12.5,4.7-4.7,7.3-9.2,8.7-11.9,3.3-2.6,10.2-8.3,12-18.8,1.8-10.4-3.5-18.4-6.7-23.1Z"/>
        </g>
        <g id="bone-5">
          <image id="shadow-2" data-name="shadow" class="cls-2" width="205" height="255" transform="translate(437 1518)" xlink:href="evolutionary-bio-hover-2.png"/>
          <path id="outline-2" data-name="outline" class="cls-1" d="M609.3,1694.9c-3.8-5-8.7-7.4-11.9-8.9-8.4-8.5-16.4-19.5-19.9-26.4,3.6-5.3,7.6-11.7,9.4-16.6,0-.2.2-.4.2-.7.1-.3.3-.8.5-1.4.7-2.5,1.2-5.1,1.4-8.2.4-5.4,0-13.1-1.8-19.4-1.2-4.7-3.8-10.3-7-15.2-1.9-2.9-4.3-5.9-7.3-8.6.5-5.8-.4-11.5-1.4-15.8-1.6-6.7-4.8-15.9-11.7-22-10.7-9.5-28.2-10.6-35.2-10.6h0c-6.7,0-12.6.8-17.4,2.5-7.9,2.8-24,13.8-23.3,30.1.3,7.2,3.6,12.6,7.2,16.6-1.5,1.7-3.2,3.4-4.9,5.1-5.4,1.1-14.3,3.3-19.9,11.8-4.7,7.1-6.3,16.8-4.8,28.7.5,4.1,2.1,14.4,6.6,22.5,7.9,14.3,24.8,24.3,41.2,34,8,4.8,18.9,11.2,22.6,15.2.6,1.4,1.5,4.3,2.1,6.2,2.5,8.2,5.3,17.4,12.6,24,9.7,8.8,27.1,11.9,34,12,.2,0,.4,0,.7,0,7.4,0,25.4-1.4,33.3-14.9,8.9-15.1-1.1-34.6-5.3-40.2Z"/>
        </g>
        <g id="bone-4">
          <image id="shadow-3" data-name="shadow" class="cls-2" width="167" height="219" transform="translate(305 1310)" xlink:href="evolutionary-bio-hover-3.png"/>
          <path id="outline-3" data-name="outline" class="cls-1" d="M447.2,1363.9c-1.8-7.6-6.9-18.4-15.8-23.8-6.2-3.7-13.7-4.5-19-4.5s-5,.2-7.1.6l-2.9.5c-5.4-3.1-9.6-3.7-12.7-3.7h0s-.1,0-.1,0h0c-11.5,0-26.9,9.3-30.5,22.5h0s0,0,0,0c-.7,2.4-2.2,8.3,1.8,20.2l-20.1,70.5c-5.2,3.7-7,6.6-7.8,8-5.4,8.5-6.1,23.6,1.9,33.3h0c4.6,5.5,10.7,7.8,16.3,9,2.7,3.4,5.8,5.9,9.5,7.4,3,1.3,6.3,2,9.8,2,7.2,0,13.5-2.9,16.6-4.7,7.3-4.1,12.2-9.9,14.1-16.8,1.9-6.9.6-13.8-4-21l17.2-66.8c.7-.3,1.4-.6,2-.9,1.7.2,3.6.3,5.7.3,12.9,0,19.3-6.9,22-11,2.7-4.2,5.4-11.3,3.1-21.4Z"/>
        </g>
        <g id="bone-3">
          <image id="shadow-4" data-name="shadow" class="cls-2" width="207" height="197" transform="translate(678 1622)" xlink:href="evolutionary-bio-hover-4.png"/>
          <path id="outline-4" data-name="outline" class="cls-1" d="M846.8,1728.7h0s0,0,0,0c-3-1.7-6.3-2.7-10.6-3.3l-51-52.6c-2.1-12.4-6.2-16.9-7.9-18.7-7.2-7.7-17.6-8.8-23.2-8.8s-10.4,1.1-14.5,3.4c-2.7,1.5-6.2,4-9.6,9.4-1,.2-1.9.5-2.7.7-5.1,1.6-16,7-21.2,15.8-5.3,8.9-4.7,20.8-2.7,28.4,2.7,10,8.5,14.9,12.8,17.4,3.4,1.9,7.4,2.9,11.3,2.9,7.9,0,14-3.8,18.2-6.6.6,0,1.3-.1,2.1-.2l46.7,50.8c-.7,8.5,1.5,15.2,6.4,20.4,5.1,5.3,12.4,8.1,21.2,8.1s16.8-1.3,23.8-10.1c2.5-3.1,4.1-6.7,4.8-11,7.3-6.2,9.3-11.6,10.1-15.6,2.6-12.3-5.3-25.3-14-30.3Z"/>
        </g>
        <g id="bone-2">
          <image id="shadow-5" data-name="shadow" class="cls-2" width="244" height="234" transform="translate(1378 1351)" xlink:href="evolutionary-bio-hover-5.png"/>
          <path id="outline-5" data-name="outline" class="cls-1" d="M1583.5,1438.1l-48.7-48.2c-9.7-9.6-22.7-15-36.4-15s-15.9,1.9-23,5.4l-3.1,1.5h0s-42.5,21.2-42.5,21.2c-12.3,6.1-21.5,16.6-25.9,29.6-4.4,13-3.6,26.9,2.4,39.3l29.1,60c4.3,8.9,11.1,16.3,19.5,21.5,8.2,5,17.5,7.6,27.1,7.6s16.8-2.1,24.2-6l65.1-34.5c14.7-7.8,24.5-21.7,26.9-38.1,2.4-16.5-3-32.6-14.8-44.3Z"/>
        </g>
        <g id="bone-1">
          <image id="shadow-6" data-name="shadow" class="cls-2" width="231" height="274" transform="translate(1168 1509)" xlink:href="evolutionary-bio-hover-6.png"/>
          <path id="outline-6" data-name="outline" class="cls-1" d="M1361.1,1572.9c-11.9-17.8-30.9-31-53.6-37.2-8.9-2.4-17.9-3.7-26.8-3.7-19,0-36.6,5.7-51,16.4-16.3,12.2-27.7,30.1-34.1,53.2-9.6,34.9,1,74.6,8.2,95.2,4.7,13.6,10.7,26.6,16.8,36.8,8.6,14.3,16.5,21.8,25.7,24.3,2.9.8,6,1.2,9.3,1.2,9.6,0,20.8-3.6,33.4-10.7,10.6-6,21.8-14.3,32.3-24,14.5-13.3,40.1-40.6,49.5-74.7,10-36.5.2-61.9-9.8-76.9Z"/>
        </g>
      </g>
      <g id="branch-upper">
        <image id="shadow-7" data-name="shadow" class="cls-2" width="352" height="420" transform="translate(1172 127)" xlink:href="evolutionary-bio-hover-7.png"/>
        <path id="outline-7" data-name="outline" class="cls-1" d="M1475,285.4c5.4-7.1,7.1-10.3,7.9-11.8l.2-.3c10.1-18.5,20.5-39.6,17.4-57.1-2.4-13.1-11.9-25.8-15.9-30.6-11-13.3-22.3-20.1-33.6-20.1s-.4,0-.6,0c-8.7.2-17.1,4.6-24.8,13.1-3.6,4-15.4,18.2-14.3,33.9.6,9.4,6.4,16.7,11.1,21.3,2.7,2.6,6.5,5.7,11.1,7.8-1,1.6-4.7,6.9-16.1,20.1-8.3-1.8-16.6-3.1-24.3-3.8.9-3.6,1.1-5.5,1.3-6.6v-.3c3.3-23.1,6-49.1-3.8-65.5-6.3-10.6-18.1-19-24.6-23.1-8.5-5.3-21.1-11.7-33.4-11.7h0c-4.2,0-8.1.7-11.6,2.1-8.4,3.3-15,10.8-19.6,22.1-4.5,11.1-7.3,27.3-1.8,39.4,6.4,14,24.9,20.5,35.5,20.5s.3,0,.4,0c-.2,1.1-.5,2.1-.6,3-1.4,6.9-7.3,23.4-12.7,37.8-1.3-2.9-2.5-5.3-3.7-7.2v-.2c-11.9-20.1-26-42.2-43.9-49-6-2.3-13.5-3.4-22.4-3.4-9.5,0-41.2,1.5-52.5,21.2-4.5,7.8-5,17.8-1.6,29.5,3.4,11.5,11.3,25.9,23.1,32,4,2,8.5,3.1,13.5,3.1,8.4,0,19.7-3.2,27.3-9.3.5,1,.9,1.9,1.4,2.7,2.6,5.1,7.3,18.3,12.8,35.5-3.7,4.4-7,8.4-9.7,11.7l-.3.4c-19.4,23.5-54.5,93.7-58.5,101.6l-5.9,11.9,8.2,10.4,29.4,37.6,18.3,35.7,18.4-37.9c11.8-24.2,45.6-91.7,60.9-112.9,1.6-2.2,3.4-4.8,5.3-7.5,6.7-9.5,15-21.3,23.8-31.5,1.9-2.2,3.6-4.1,5.2-5.7-1.1,11.5,1.1,24.3,6,32.2,5.5,8.8,15.6,15.2,23,19,6,3.1,17.9,8.2,29.8,8.2s7.7-.6,11.1-1.7c20.4-6.6,37.9-30.4,46.7-48.7,8.6-17.9,10.7-33.1,6.1-45.1-3.2-8.4-9.6-16.1-19-23Z"/>
      </g>
      <g id="branch-middle">
        <image id="shadow-8" data-name="shadow" class="cls-2" width="411" height="388" transform="translate(428 432)" xlink:href="evolutionary-bio-hover-8.png"/>
        <path id="outline-8" data-name="outline" class="cls-1" d="M808.6,702.4c-6-6.5-59.8-63.7-85.1-80.7l-.5-.3c-6.1-4.1-13.8-9.3-22.6-14.8.2-15.9.7-27.8,1.6-33,.1-.9.3-1.9.5-3,5.3,2.1,11,2.6,15.2,2.6,7.5,0,18.1-1.5,25.6-8.9,11.9-11.7,12.5-31.6,12.4-37.4-.2-12.2-3.7-21.5-10.3-27.7-6.6-6-15.9-9.1-27.9-9.1-15,0-36.6,5-48.8,14.6-15.1,11.8-21.9,37.1-27.1,59.8v.3c-.3,1.2-.9,3.5-1.4,8-11.8-15-20.5-27-23.5-32.2-.5-.8-1-1.7-1.5-2.7,6.6-2,12.1-6.1,15.2-8.7,5.2-4.5,11.7-11.9,12.9-21.6,1.6-13.2-5.9-27.8-13.5-37.1-7.7-9.4-16.3-14.6-25.3-15.2-.7,0-1.4,0-2.1,0h0c-11.6,0-23.6,6.8-35.7,20.1-4.6,5-15.5,18.2-18.8,32-4,16.7,3.5,37.7,16.1,63.9.6,1.3,1.9,3.9,5.3,9.3-6.5,2.9-13,6.4-19.6,10.3-12.6-7.7-22.2-14.1-25.9-17.2,3.7-3.4,6.4-7.5,8.2-10.8,3.2-5.7,6.4-14.5,4.2-23.7-2.5-10.6-10.8-18.7-17.2-23.6-5.1-3.9-15.4-10.5-26.6-10.5-2.6,0-5.2.4-7.6,1.1-11,3.2-19.9,13-26.5,29.2-2.4,5.8-7.7,20.8-6.1,34.1,2,15.8,15,31.2,33.9,49.5,3.8,3.7,10.1,8.3,17.1,13.1-4.7,7.5-7.4,14.9-7.9,22.1-.9,12.8,5.4,26.7,18.8,41.4,13.7,15.1,37.3,32.8,58.7,33.3.3,0,.5,0,.7,0,13.4,0,25.7-8.3,33.7-15.3,4.8-4.2,16.2-15.1,19.6-27.5,2.5-9,.9-21.9-3.4-32.6,2,1.1,4.2,2.5,6.6,4,11.4,7.2,22.7,16.2,31.8,23.4,2.6,2,5,4,7.2,5.6,20.7,15.9,72.4,71,90.6,90.8l36.5,39.8v-50s16.8-42.6,16.8-42.6l4.9-12.3-9.1-9.7Z"/>
      </g>
      <g id="branch-lower">
        <image id="shadow-9" data-name="shadow" class="cls-2" width="421" height="328" transform="translate(1182 824)" xlink:href="evolutionary-bio-hover-9.png"/>
        <path id="outline-9" data-name="outline" class="cls-1" d="M1578,960.4c-2.6-17.3-8.9-28.9-18.8-34.7-4.3-2.5-9.3-3.7-14.8-3.7-13,0-35.1,8.2-43,23.7-4.3,8.4-3.2,17.6-1.5,24,1,3.6,2.6,8.2,5.4,12.4-1.5.7-5.5,2.5-15.1,5.9-7.5-7.2-15.2-13.5-22.6-18.6,14.6-17.9,30-38.5,30.1-57.5,0-14.9-8.4-31.4-11-36.1-9.1-16.5-19.8-25.8-31.7-27.8-1.5-.2-3-.4-4.5-.4h0c-12,0-22.7,7.6-29.5,14-5.4,5.1-14.7,15.5-16.2,27.9-1.1,9.7,3.4,18.4,7.4,24,2.3,3.2,6.7,8.5,12.7,12-.8.8-1.5,1.6-2.1,2.2-3.3,3.6-11.7,10.8-22.9,19.8,0-.9,0-1.6,0-2.1v-.3c.3-23.3-.3-49.4-12.1-64.5-7.2-9.1-19-15.8-25.4-18.9-6.5-3.2-19.3-8.6-31.5-8.6-6.1,0-11.6,1.3-16.2,3.9-7.9,4.4-13.5,12.6-16.6,24.5-3,11.6-3.8,28,3.2,39.3,7.9,12.7,25.4,16.1,33.5,16.1s3.1-.1,4.6-.3c-.1,1.1-.2,2.1-.3,3-.4,5.4-2.8,17.6-6.6,33.6-5.1,1.7-9.6,3.3-13.6,4.7l-.6.2c-28.7,10.1-95.1,52-102.6,56.8l-11.2,7.1,1.6,13.2,6,49.4,4.1,33.4,28.2-18.3c22.6-14.7,86.5-54.9,110.5-65.1,2.5-1.1,5.4-2.3,8.4-3.7,11.1-4.9,29-12.8,44.1-16.9-6.3,8.6-11.7,20.5-11.5,30.7.2,12.9,8.6,26.5,12.2,31.8,6.1,8.9,16.2,20.1,29.3,23.2,3.4.8,7,1.2,10.8,1.2,14.1,0,32.4-5.7,48.9-15.3,24.9-14.5,32.3-29.1,34.1-38.8,1.6-8.9.2-18.8-4.4-29.5,2-1,3.4-1.7,4.5-2.3h.2c18.2-10.7,38.2-23.4,44.5-40,4.8-12.5,3.1-28.3,2.2-34.6Z"/>
      </g>
      <g id="trunk">
        <image id="shadow-10" data-name="shadow" class="cls-2" width="616" height="1876" transform="translate(727 4)" xlink:href="evolutionary-bio-hover-10.png"/>
        <path id="outline-10" data-name="outline" class="cls-1" d="M1289,934.1c-16.7-18.9-40-36-71.2-52.2-54.8-28.5-125.4-49.3-187.7-67.7-38.2-11.3-74.3-21.9-102.1-32.9-27.6-10.9-39.4-19.3-44.3-24.5,0-4.1.9-10.4,4.6-14.9,2.8-2,6.2-4,10.3-6,31.2-11.7,71.1-22.6,113.2-34.2,6.9-1.9,13.9-3.8,20.8-5.7,29.3-7.6,63.7-17,96.3-28.9,35.9-13.1,64.3-27.5,87-43.8,23.2-16.1,38-31.1,44.9-45.7,15.8-24.3,23.2-51.9,21.8-82.2-1.9-42.8-20.1-77.8-55.6-107-29.5-24.3-67.6-41.8-104.5-58.7-67.9-31.2-132.1-60.6-144.4-127.6-3.4-18.6,2.5-55.1,18.7-78.1-.1,3.4,0,6.4.2,8.9,1.3,15.4,6.7,29.3,14.9,38.2,8.4,9.1,20.3,13.9,34.3,13.9s18.7-2,28.4-5.9c6-2.2,16.9-7,25-14.4,16.5-13,26.2-29.1,27.4-45.3,1.2-17.1-6.9-36-22.9-53.2-17.4-18.7-48-38.7-82-38.7h0c-6.2,0-12.2.7-18,2-14.3,3.3-28,10.5-40.6,21.4-11.1,9.6-21.3,21.8-30.1,36.4-8.7,14.4-15.8,30.4-21,47.2-11.6-12.5-24-22.5-36.9-25.8-4.6-1.2-10-1.8-16-1.8-12.1,0-26.6,2.5-39,6.7-17.6,6-28.9,14.6-33.8,25.6-4,9.3-3.3,20.7,2.3,33.9,5.6,13.4,16.8,29.8,31.3,35.3,3.4,1.3,7,1.9,11,1.9,8.2,0,15.9-2.8,20.9-5.1,5.4-2.5,12.7-6.8,17.3-13.3.8-1.2,1.5-2.4,2.2-3.8,1.7,2.7,3.4,5.2,4.8,7.6,1.1,1.7,2.1,3.3,3,4.7,5.9,9.1,17.5,32.9,26.4,51.7-4.4-.4-8.5-.6-12.4-.6-10.1,0-18.5,1.4-25.7,4.2-17,6.7-35.3,24.2-46.7,38.2-12.5,15.4-26.5,38-22.1,58.2,3.4,15.5,18.4,26.5,30.3,33,6.6,3.6,24,12,41.5,12s8-.5,11.5-1.5c11.9-3.2,20.5-13.5,25.6-21.6,3.7-5.8,9.9-17.3,9.7-28.6-.1-7-3-13.9-5.6-18.7,9.8,3,20,7.1,26.9,9.8,2.5,1,5,2,7.1,2.8,5.2,2,16.1,6.9,38.6,18.6-19,3.7-35.3,9.5-45.8,19-16.2,14.7-26.1,41.7-28.7,49.6-6,17.9-10.8,42.8,0,59.5,12.4,19,43.6,20.5,52.9,20.5s25.7-1.7,36.5-9.5c9.7-7,14-19.2,15.8-28.2,1.4-6.5,3-18.9-1.1-29-2.1-5.2-5.8-9.6-9.2-12.9,3.5-.2,7.4-.2,11.6-.2s8.5,0,12.1.1c2.6,0,5,0,7.1.1,15.7,0,57.6,5.5,93.1,10.7,14,7.9,24.4,14.9,32.6,21.9l6.5-7.5h0c0,0-6.4,7.5-6.4,7.5,14.7,12.7,21.4,24.9,21.7,39.6,0,4.4-.8,11.2-9.5,19.9-7.7,7.7-20,15.4-36.6,22.8-34.2,15.4-81.2,27.7-131,40.8-13.6,3.6-27.7,7.3-41.6,11-43.2,11.3-77,21.3-101.4,32.7-36.4,14.8-63.1,31-81.4,49.5-23.7,23.8-34,51.6-30.9,82.8,3.1,30.3,15.8,58.1,37.9,82.7,18.6,20.7,43.4,39,76,55.9,57.4,29.9,127.9,49.8,190.1,67.3,47.1,13.3,91.6,25.8,116.6,39.4,6.1,5.5,10.9,10.9,13.9,14.7-3.4,2.8-9,6.7-18.1,11.2-12.2,5.6-28.9,11.6-52.4,18.7-12.3,3.5-25.6,7.1-39.7,10.9-35.5,9.6-75.8,20.5-112.3,33.8-57.8,19.4-98.8,39-129.1,61.7-41.2,30.9-61.6,67.9-60.6,109.9.7,30,11.5,56.3,32,78.3,17,18.2,40.3,33,71.1,45.3,53.2,21.3,119.6,30.8,172.9,38.4,32.9,4.7,64.2,9.2,81.4,15-1.8,1.3-4.7,3.2-9.3,5.5-7.5,3.8-16.5,7.3-24.4,10.3-3.9,1.5-7.6,2.9-10.9,4.3-4.6,1.9-14.6,5.4-26.2,9.5-27.4,9.6-64.8,22.6-87.4,34.4-2.2,1.1-4.3,2.4-6.4,3.8-21.2,10.4-38,20.9-51.2,31.9-17.1,14.4-28.5,30.2-33.8,47-8.7,27.6-10.1,54.3-4.2,79.5-3.3,3.6-6.6,7.6-9.9,12.4-10.6,15.1-9.1,29.6-8.4,36.5,0,.8.2,1.9.2,2.3,0,3.7.8,9.3,1.8,17.5.3,2,.6,4.6.8,6.3-.1.7-.3,1.6-.4,2.3-2,10.3-3.9,19.9,2.7,28.7,3.7,4.9,9.2,8,15.3,8.6h0s0,0,0,0h.9c0,0,1,0,1,0,4.1,0,14.3-1.3,20.5-13.6.5-1.1,1.1-2.3,1.6-3.6,1.1,4.5,2.7,8,3.8,10.5.3.7.8,1.7.9,2.1,1.2,3.5,3.6,8.7,7,16.3.8,1.8,1.9,4.2,2.6,5.7,0,.7.2,1.6.3,2.3.3,3,.7,6.5,1.4,9.6.5,2.7,1.2,4.9,2,6.9,3.6,8.6,11.4,14,20.4,14s3.1-.2,4.6-.5c3.5-.8,14.8-4.4,17.3-19.4.4-2.3.6-5,.6-8.2,0-4.9-.3-10-.5-12.3-.6-6.5-2.6-13-5.2-21.2-.4-1.3-.8-2.6-1.2-3.9,1.9,1,3.7,1.9,5.6,2.7,0,4,.2,8.3.6,12.8,1.8,18.3,12,28,17.5,33.1.6.5,1.4,1.3,1.6,1.6,2.5,2.7,6.7,6.6,12.8,12.1,1.5,1.4,3.5,3.1,4.7,4.3.4.6.8,1.4,1.2,2,1.4,2.5,3,5.3,4.7,7.9,2.1,3.1,8.4,12.6,20.7,12.6s8.8-1.4,12.4-4c2.9-2,12-9.8,8.4-24.7-.5-2.3-1.4-4.8-2.6-7.8-1.9-4.5-4.2-9.1-5.2-11.1-3.1-5.7-7.5-10.9-13.1-17.5-1.8-2.1-3.6-4.3-5.6-6.6,2-1.5,5.1-3.6,7.9-7,23.6-4.6,42.7-16.9,54.6-34.9,0,.1,0,.2,0,.4,1.9,8.4,3.4,15,6.1,20.9,1.1,2.5,3.3,6.7,5.5,10.5,2.9,4.9,9.6,16.3,23,16.3s4.4-.3,6.5-1h0s0,0,0,0c5.8-1.9,10.5-6.1,13.1-11.7,4.5-10,.6-19-3.6-28.6-.3-.7-.6-1.5-.9-2.1,0-.7-.2-1.6-.3-2.6,4.6-.3,9-2,12.5-4.9,4.7-3.8,7.7-9.6,8-15.8.6-11.5-7-19.2-16.7-29-1-1-2.3-2.3-3.1-3.2-1-2-3-5.9-4.5-8.8-5-10.1-8.5-16.9-11.1-20.9-.4-.7-1.1-2-1.8-3.3-4.4-8.3-12.5-23.6-33.5-31.8-15.3-5.9-28-8.7-40.1-8.7s-4.9.1-7.5.3c-1.6.1-3.1.4-4.7.7-2.1-.8-4.2-1.6-6.2-2.4-2.2-.8-4.7-1.8-7.2-2.8,5.6-2.6,15.2-6.5,31.7-12.5,20.3-7.3,43.7-15.1,64.4-22,19.8-6.6,35.4-11.7,43.2-14.8l.6-.2c28.4-11.4,59.3-25.6,74.6-45,15.6-13,27.3-27.4,34.7-42.8,9-18.6,12-38.9,8.9-60.3-3-21-13.4-39.2-30.8-54.3-14.1-12.2-32.6-22.2-56.7-30.8-41.7-14.7-92.4-22.2-141.4-29.4-30.5-4.5-59.4-8.8-82.9-14.4-26.5-6.4-38-12.7-43.1-17.2-.7-1.1-1.5-2.9-1.2-4.6.6-3,4.6-8.3,14.5-14.3,12.1-7.4,25.9-14.3,42.2-21.2,21.8-8.1,47.5-16.2,74.6-24.7,26.4-8.3,53.6-16.8,80.6-26.4,17.4-5.6,31.5-10.6,44.3-15.6,19.7-7.7,82.3-38.1,103.6-64,27.4-26.5,41.2-56.7,41.2-89.9s-10.3-53.4-30.6-76.4Z"/>
      </g>
      <g id="arctic">
        <image width="2792" height="2543" transform="translate(1249 291.8) scale(.2)" xlink:href="evolutionary-bio-hover-11.png"/>
        <path id="outline-11" data-name="outline" class="cls-1" d="M1883.1,610.7c-3.8-2.6-8.7-4.8-14.8-6.8-7.2-2.4-16.4-4.6-27.3-6.6-10.9-34.6-29.3-88.9-50.8-134.6-28.4-60.8-54.3-89.1-81.4-89.1s-4.8.2-7.1.7c-13.6,2.6-30.1,11-49.8,25.3-13.1-17.4-25.1-32.2-35.9-44.3-25.2-28.2-41.9-39.6-57.7-39.6s-24.6,7.4-39,23.9c-8.4,9.7-18,22.9-28.5,39.3-17.4,27.2-31.6,54.4-32.2,55.5l-7.6,14.4c-4-1.9-7.7-3.6-11.3-5.1-4.8-2.1-9.4-3.7-13.5-4.9-7.6-2.3-14.2-3.4-20.1-3.4-19.1,0-30.8,18.4-38.8,34.5-6.2,12.5-10.6,24.8-10.8,25.3l-1.1,3.2v.4c-11.9,31.8-23.2,71.5-30.5,98.7-10.3,2-19.1,4.2-26.1,6.8-6,2.2-10.8,4.5-14.5,7.2-10.5,7.5-12,16.7-12,21.6v71.4c0,4.8,1.5,14,11.9,21,3.3,2.2,7.5,4.2,12.7,5.9,5.4,1.8,12.2,3.5,20.4,5.1,6.2,14.9,12.6,28,18.9,38.8,11.8,20.3,23.6,33.3,36.2,39.6,12.9,6.5,34.7,10.2,66.5,15.3,12.5,2,25.4,4,33.2,5.9,2.1,1.4,4.2,3,6.5,4.6,10.6,7.5,23.8,16.8,39.8,24.3,19.3,9,38.9,13.5,59.7,13.9,1.3,0,2.5,0,3.7,0,44.4,0,64.4-14.3,82.1-27,7.3-5.2,14.1-10.1,22.8-13.9,9.5-4.1,22.1-5.2,36.8-6.4,22.6-1.9,50.8-4.2,80.8-19.5,12.5-6.4,23-19.4,32.2-39.9,4.5-10,8.6-21.8,12.5-35.3,8.5-1.6,15.4-3.2,21-5,5.5-1.8,9.9-3.7,13.3-6,10.8-7,12.4-16.4,12.4-21.3v-71.6c0-5-1.7-14.5-12.7-21.9Z"/>
      </g>
      <g id="forest">
        <image id="shadow-11" data-name="shadow" width="2780" height="1988" transform="translate(123.8 14.9) scale(.2)" xlink:href="evolutionary-bio-hover-12.png"/>
        <path id="outline-12" data-name="outline" class="cls-1" d="M749.1,199.3c-5.7-2.8-13.3-5.3-23-7.7-9.2-2.2-20.1-4.3-32.5-6.1,1.5-5.2,2.3-10.8,2.3-16.6,0-13.6-4.4-26.5-12.5-36.5-7.3-9-17.2-14.9-27.8-16.8-2.4-9.1-6.2-17.5-11.3-24.8-10.5-15-25.9-23.5-42-23.5s-31.5,8.6-42,23.5c-9.1,12.9-14.1,29.8-14.1,47.4s2.8,25.8,8,36.9c-.2,0-.3,0-.5,0-30.6-26.3-75.1-56.2-123.4-61-9.6-6.7-29.8-19.3-53.8-26.6,1.1-3.6,1.7-7.5,1.7-11.5,0-9.1-3-17.8-8.5-24.6-6.4-7.9-15.7-12.5-25.5-12.5s-18.2,4.2-24.4,11.2c-3,.6-5.9,1.7-8.6,3.2-4.2-2-8.8-3-13.5-3-9.8,0-19.1,4.5-25.5,12.5-4,4.9-6.7,10.9-7.8,17.3-3.8,1.9-7.2,4.7-10,8.2-2,2.5-3.7,5.3-4.9,8.3-2.4-.6-4.8-.9-7.3-.9-9.8,0-19.1,4.5-25.5,12.5-5.5,6.8-8.5,15.5-8.5,24.6s2.6,16.5,7.1,22.8c-11.4,13-20.9,25.6-28.1,35.8-6.1,1.5-11.6,3.2-16.3,5.1-10.1,4.1-16.5,8.9-20.1,15.3l-2.8,4.8v76.8c0,5,1.6,14.4,12.6,21.4,3.5,2.2,7.8,4.2,13.4,5.9,6,1.9,13.5,3.7,22.8,5.3,6.2,15,12.5,28.2,18.8,39.1,11.9,20.7,23.8,33.9,36.5,40.3,12.8,6.4,34.5,10.2,66.1,15.2,12.4,2,25.2,4,32.9,5.8,2.1,1.4,4.2,2.9,6.5,4.5,10.5,7.4,23.6,16.7,39.6,24.1,19.2,8.9,38.6,13.4,59.3,13.8,1.3,0,2.5,0,3.7,0,44.1,0,64-14.2,81.6-26.8,7.2-5.2,14-10,22.6-13.8,9.4-4.1,21.9-5.1,36.5-6.3,22.5-1.9,50.5-4.2,80.3-19.4,12.8-6.5,23.5-20.1,32.8-41.4,4.5-10.4,8.7-22.7,12.6-36.7,6.8-1.4,12.5-2.9,17.2-4.5,5.1-1.8,9.1-3.7,12.4-6,10-7,11.5-15.9,11.5-20.7v-69c0-7.4-3.2-17.7-18.3-25.1Z"/>
      </g>
      <g id="desert">
        <image id="shadow-12" data-name="shadow" class="cls-2" width="753" height="454" transform="translate(25 687)" xlink:href="evolutionary-bio-hover-13.png"/>
        <path id="outline-13" data-name="outline" class="cls-1" d="M754.9,839.1c-.2-5.6-2.6-16-16.5-23.2-3.7-1.9-8.3-3.6-13.9-5.3-19.9-16.5-73.7-56.2-133.9-60.8-12-6.5-42.2-21.1-74.1-22.1-.2,0-.5,0-.7,0-.5,0-1,0-1.6,0-.7,0-1.4,0-2,0-1.3-.5-2.9-1.2-4.7-1.9-25.3-10.1-49.5-15.2-72.1-15.2s-36.2,3.7-55,11c-.8.3-1.7.6-2.5.9-4.2-.4-8.4-.7-12.6-.8-1.2,0-2.4,0-3.6,0-18,0-36.1,2.8-53.9,8.4-.5,0-1,.2-1.5.3-2.8.8-5.7,1.7-8.6,2.7-3.3-.3-6.6-.4-9.8-.4-19.5,0-40.9,5.4-63.5,16.2-6.8,3.2-14,7-21.3,11.4l-.4.3h-.2c0,.1,0,.2,0,.2h0s-.1,0-.1,0h-.2c-20.7,12.6-38.7,27-51.5,38.2-2.8.3-5.5.6-8.2.9-7.6.7-15.4,1.7-22.8,2.9-17.7,2.5-31.8,5.3-41.7,8.3-6.3,1.9-11.3,4-15.2,6.3-11.6,7-13.6,16.6-13.8,21.7v.3s0,.3,0,.3v82c0,7.4,3.4,14.3,9.6,19.5,3,2.5,6.6,4.6,11.2,6.5,4.1,1.7,9,3.3,15,4.8,21,48.7,41.8,77.6,63.3,88.2,15.1,7.5,41.4,12,79.8,18,15.8,2.5,32,5,41.7,7.4,2.8,1.9,5.7,3.9,8.7,6,26.7,18.6,63.3,44.2,118.7,45.1,1.5,0,3,0,4.5,0,52.6,0,76.4-16.8,97.4-31.6,9.1-6.4,17.7-12.5,28.7-17.2,12.3-5.3,28.1-6.6,46.4-8.1,27.2-2.2,61-5,96.8-23,13.7-6.9,25.4-20.9,35.8-42.9,5.6-11.9,10.9-26.2,15.7-42.7,4.9-1.3,9.1-2.7,12.6-4.2,4.5-1.9,8.1-4.1,11-6.5,5.9-5.1,9.2-11.9,9.2-19.2v-82.7Z"/>
      </g>
    </g>
  </g>
</svg>