<?xml version="1.0" encoding="UTF-8"?>
<svg xmlns="http://www.w3.org/2000/svg" xmlns:xlink="http://www.w3.org/1999/xlink" version="1.1" viewBox="0 0 1920 1920">
  <defs>
    <style>
      .cls-1 {
        fill: #9e6aa8;
      }

      .cls-2 {
        fill: #9585b6;
      }

      .cls-3 {
        fill: #ebeec3;
      }

      .cls-4 {
        fill: #c3b9d4;
      }

      .cls-5 {
        fill: url(#linear-gradient-4);
      }

      .cls-6 {
        fill: url(#linear-gradient-3);
      }

      .cls-7 {
        fill: url(#linear-gradient-2);
      }

      .cls-8 {
        fill: #fb757e;
      }

      .cls-9 {
        fill: #966e82;
      }

      .cls-10 {
        fill: #aace84;
      }

      .cls-11 {
        fill: #8495c0;
      }

      .cls-12 {
        fill: url(#linear-gradient);
      }

      .cls-13 {
        fill: #6aa9bf;
      }

      .cls-14 {
        fill: #c16991;
      }

      .cls-14, .cls-15 {
        isolation: isolate;
        opacity: .5;
      }

      .cls-16 {
        fill: #c9e2df;
      }

      .cls-15 {
        fill: #edfcf9;
      }

      .cls-17 {
        fill: #e1f4f0;
      }

      .cls-18 {
        fill: #fe8968;
      }

      .cls-19 {
        fill: #9cc0d0;
      }

      .cls-20 {
        fill: #6da576;
      }

      .cls-21 {
        fill: #c8a8cd;
      }

      .cls-22 {
        fill: #fff;
      }

      .cls-23 {
        fill: #b9c3dc;
      }

      .cls-24 {
        fill: #fedd72;
      }

      .cls-25 {
        fill: #aa858d;
      }

      .cls-26 {
        fill: #acd4b1;
      }

      .cls-27 {
        fill: #94d0e0;
      }

      .cls-28 {
        fill: #f6e37d;
      }

      .cls-29 {
        fill: #ffc3a7;
      }

      .cls-30 {
        opacity: .4;
      }

      .cls-31 {
        fill: #dde195;
      }

      .cls-32 {
        fill: #ad8696;
      }

      .cls-33 {
        fill: #a07a89;
      }

      .cls-34 {
        fill: #dbaac0;
      }

      .cls-35 {
        fill: #d3979e;
      }

      .cls-36 {
        fill: #8ebc92;
      }

      .cls-37 {
        fill: #eaa7a2;
      }
    </style>
    <linearGradient id="linear-gradient" x1="1637.1" y1="1105.3" x2="1634.9" y2="1270.7" gradientTransform="translate(0 1920.4) scale(1 -1)" gradientUnits="userSpaceOnUse">
      <stop offset="0" stop-color="#e1f4f0"/>
      <stop offset=".2" stop-color="#c8e8ea"/>
      <stop offset=".4" stop-color="#abdbe4"/>
      <stop offset=".6" stop-color="#9ad2e1"/>
      <stop offset=".7" stop-color="#94d0e0"/>
    </linearGradient>
    <linearGradient id="linear-gradient-2" x1="3319.6" y1="1141" x2="3317.8" y2="1276.4" gradientTransform="translate(4711 1920.4) rotate(-180)" gradientUnits="userSpaceOnUse">
      <stop offset="0" stop-color="#e1f4f0"/>
      <stop offset=".2" stop-color="#c8e8ea"/>
      <stop offset=".4" stop-color="#abdbe4"/>
      <stop offset=".6" stop-color="#9ad2e1"/>
      <stop offset=".7" stop-color="#94d0e0"/>
    </linearGradient>
    <linearGradient id="linear-gradient-3" x1="3280.7" y1="1143.8" x2="3278.9" y2="1272.5" gradientTransform="translate(4711 1920.4) rotate(-180)" gradientUnits="userSpaceOnUse">
      <stop offset="0" stop-color="#e1f4f0"/>
      <stop offset=".2" stop-color="#c8e8ea"/>
      <stop offset=".4" stop-color="#abdbe4"/>
      <stop offset=".6" stop-color="#9ad2e1"/>
      <stop offset=".7" stop-color="#94d0e0"/>
    </linearGradient>
    <linearGradient id="linear-gradient-4" x1="1303.7" y1="1148.4" x2="1301.9" y2="1277.1" gradientTransform="translate(474.5 1920.4) scale(1 -1)" gradientUnits="userSpaceOnUse">
      <stop offset="0" stop-color="#e1f4f0"/>
      <stop offset=".2" stop-color="#c8e8ea"/>
      <stop offset=".4" stop-color="#abdbe4"/>
      <stop offset=".6" stop-color="#9ad2e1"/>
      <stop offset=".7" stop-color="#94d0e0"/>
    </linearGradient>
  </defs>
  <!-- Generator: Adobe Illustrator 28.7.1, SVG Export Plug-In . SVG Version: 1.2.0 Build 142)  -->
  <g>
    <g id="Layer_1">
      <g id="Layer_2">
        <path class="cls-9" d="M687.6,1775.8c62.2,41.4,143.8,114.3,276.6,116.6,166.7,2.9,188.1-69.3,283.3-110.7,84.8-36.9,200.7-5.8,330.1-71.9,88-44.9,129.6-329.1,129.6-329.1H226.7s85.2,289.5,179.9,336.9c51.8,26,221.7,41,281,58.3"/>
        <path class="cls-32" d="M1790.4,1247.4H141.4v203.6h.6c0,0,0,.2,0,.2,0,41.4,369,75,824.2,75s824.2-33.6,824.2-75,0-.2,0-.2h0v-203.6h0Z"/>
        <ellipse class="cls-35" cx="967.2" cy="1248.8" rx="824.9" ry="80.3"/>
        <path class="cls-33" d="M314.5,1604.6s42.9-27.6,62-26.4c17.3,1,37.2,26.7,54.6,26.8,18,.2,39.7-27.3,57.7-26.8,23.7.6,47.4,38.6,71.1,39.1,20.9.4,45.6-33.1,66.4-31.7,21.9,1.4,35.8,40.3,57.7,41.5,24,1.3,50.9-38.6,75-37.8,27.2.8,50.3,47.2,77.5,47.8,25.2.5,50.8-40.5,76-41.4,29.2-1.1,67.5,44.2,96.4,41.4,29.6-2.8,44.2-49.8,74-50,21.4-.1,32.7,28.9,54,28.7,31.2-.3,44.5-48.4,75.7-49.2,24.7-.6,41.5,33.1,66.3,33.3s44.7-33.4,70.1-33.3c27.9,0,48.5,39.1,76.4,38.2,25.5-.8,36.4-36.7,61.8-38.2,26.7-1.6,69.2,31.4,96,31.4,30,0,83.3-45,83.3-45l-7.2,21.5s-49.8,55.7-77,56.1c-25.2.4-60.5-41.1-85.6-39.6-29.5,1.8-41.8,54.3-71.4,54.9-26.9.6-44-46.2-70.8-46.5-27.7-.3-48,47.2-75.6,46.5-25.8-.6-38.5-46.6-64.3-46.5-31.8.1-45.9,59.1-77.6,58.7-23.7-.3-30.5-39.7-54-39.9-32.2-.2-43,58.7-76,61.3-28.8,2.3-61.1-42.2-90.1-42.6-25.1-.3-55.3,38.3-80.3,37.4-26.4-.9-51.1-44.1-77.5-44.9-23.5-.7-51.6,36.7-75,35.4-21.2-1.2-36.5-37.8-57.7-39.1-20.5-1.2-45.8,31-66.4,30.5-23.6-.6-47.5-38-71.1-38.6-17.9-.5-39.8,26.6-57.7,26.4-17.3-.1-37.4-25.2-54.6-26.4-18.6-1.4-46.2,15.3-46.2,15.3l-15.8-28.4h0Z"/>
        <circle class="cls-33" cx="760.5" cy="1702.6" r="17"/>
        <circle class="cls-33" cx="562" cy="1548.1" r="7.5"/>
        <circle class="cls-33" cx="655" cy="1569.1" r="13.5"/>
        <circle class="cls-33" cx="1211.5" cy="1674.6" r="11"/>
        <circle class="cls-33" cx="1284" cy="1555.1" r="6.5"/>
        <circle class="cls-33" cx="1346" cy="1650.1" r="13.5"/>
        <circle class="cls-33" cx="1388.5" cy="1674.6" r="11"/>
        <circle class="cls-33" cx="1591" cy="1548.1" r="7.5"/>
        <circle class="cls-33" cx="1516" cy="1634.1" r="7.5"/>
        <ellipse class="cls-33" cx="333" cy="1544.6" rx="10.5" ry="11"/>
        <circle class="cls-33" cx="711.5" cy="1729.6" r="10"/>
        <circle class="cls-33" cx="850.5" cy="1785.6" r="18"/>
        <circle class="cls-33" cx="1133" cy="1765.1" r="11.5"/>
        <circle class="cls-33" cx="482" cy="1679.1" r="11.5"/>
        <ellipse class="cls-33" cx="450.5" cy="1541.1" rx="7" ry="7.5"/>
        <ellipse class="cls-33" cx="1406.5" cy="1562.1" rx="7" ry="7.5"/>
        <circle class="cls-33" cx="426.5" cy="1571.6" r="10"/>
        <circle class="cls-33" cx="1447.5" cy="1539.6" r="13"/>
        <circle class="cls-33" cx="1481" cy="1694.1" r="8.5"/>
        <circle class="cls-33" cx="1287.5" cy="1729.6" r="10"/>
        <circle class="cls-33" cx="1030" cy="1811.1" r="15.5"/>
        <circle class="cls-33" cx="979" cy="1853.1" r="11.5"/>
        <ellipse class="cls-33" cx="916" cy="1803.6" rx="7.5" ry="8"/>
        <circle class="cls-33" cx="808.5" cy="1547.6" r="8"/>
        <circle class="cls-33" cx="732.5" cy="1555.6" r="11"/>
        <circle class="cls-33" cx="632.5" cy="1670.6" r="7"/>
        <g>
          <path class="cls-25" d="M491.7,1211.6s34.5-59.1,71.7-59.1,83.4,59.1,83.4,59.1h-155.1,0Z"/>
          <path class="cls-37" d="M541.6,1211.6s17.4-60.2,26-59.1c41.5,4.8,79.2,59.1,79.2,59.1h-105.2Z"/>
          <path class="cls-33" d="M491.5,1211.6s17.3-28.1,35.3-42.7c2.2-1.8-18.6,42.7-18.6,42.7h-16.7Z"/>
        </g>
        <circle class="cls-33" cx="572.5" cy="1724.6" r="11"/>
        <g>
          <path class="cls-25" d="M244,1257.6s70.4-120.7,146.4-120.7,170.1,120.7,170.1,120.7H244Z"/>
          <path class="cls-37" d="M345.8,1257.6s35.4-122.7,53-120.7c84.6,9.9,161.7,120.7,161.7,120.7h-214.7,0Z"/>
          <path class="cls-33" d="M243.5,1257.6s35.4-57.4,72-87c4.5-3.7-38,87-38,87h-34Z"/>
        </g>
        <g>
          <path class="cls-25" d="M1399.9,1218.6s58.3-100,121.3-100,141,100,141,100h-262.2Z"/>
          <path class="cls-37" d="M1484.2,1218.6s29.3-101.7,43.9-100c70.1,8.2,133.9,100,133.9,100h-177.9Z"/>
          <path class="cls-33" d="M1399.5,1218.6s29.3-47.5,59.6-72.1c3.8-3.1-31.5,72.1-31.5,72.1h-28.2,0Z"/>
        </g>
        <g>
          <path class="cls-25" d="M1165.9,1249.6s68.5-117.5,142.5-117.5,165.7,117.5,165.7,117.5h-308.2Z"/>
          <path class="cls-37" d="M1265.1,1249.6s34.5-119.5,51.7-117.5c82.4,9.6,157.4,117.5,157.4,117.5h-209.1Z"/>
          <path class="cls-33" d="M1165.5,1249.6s34.4-55.9,70.1-84.8c4.4-3.6-37,84.8-37,84.8h-33.1Z"/>
        </g>
        <g>
          <path class="cls-25" d="M508.8,1275.6s49-84,101.9-84,118.4,84,118.4,84h-220.3Z"/>
          <path class="cls-37" d="M579.7,1275.6s24.7-85.4,36.9-84c58.9,6.9,112.5,84,112.5,84h-149.4Z"/>
          <path class="cls-33" d="M508.5,1275.6s24.6-39.9,50.1-60.6c3.2-2.6-26.4,60.6-26.4,60.6h-23.7Z"/>
        </g>
        <g>
          <path class="cls-25" d="M1460.7,1265.6s38.5-66,80.1-66,93,66,93,66h-173.1Z"/>
          <path class="cls-37" d="M1516.4,1265.6s19.4-67.1,29-66c46.3,5.4,88.4,66,88.4,66h-117.4Z"/>
          <path class="cls-33" d="M1460.5,1265.6s19.3-31.4,39.4-47.6c2.5-2-20.8,47.6-20.8,47.6h-18.6Z"/>
        </g>
      </g>
      <g id="skull_group">
        <g id="skull">
          <path class="cls-16" d="M613.5,1423.6c9.6-5.8,34.2-.7,45.2-2.9,6.1-1.2,16.5-6.9,22.7-6.5,13.8.9,38.2,17.8,47.9,27.6,6.8,6.9,18.7,24.1,18.8,33.7,0,4.9-9.2,12.5-9.3,17.4-.2,11.1,15.7,29.5,19.8,39.8,4.8,12,10.3,37.4,15.1,49.5,1.2,3.1,6.4,8.5,5.8,11.8-.8,4.7-5.5,6.1-7.9,9.3-1.8,2.3-2.9,6.3-7.3,10.6s-13,5.7-17.9,5.7c-8.7,0-15.8-15.8-23.9-18.7-3.3-1.2-10.7,1.3-14,0-17-6.7-37.3-41.1-53.5-49.5-4.2-2.2-15-1-18.6-4.1-11.3-9.4-11.9-44.6-22.9-54.4-8-7.2-38.2-1.9-41.1-12.2-2.2-7.9,19-16.1,23.3-23,5.1-8.2,9.6-29.2,17.8-34.2h0Z"/>
          <path class="cls-19" d="M683,1497.8c.8-2.4-3.4-7.2-3.2-9.7.2-3.3,8.7-7.3,8.1-10.6-1.3-7.2-19.5-12-26.8-11.4-5.3.4-15.7,6.5-17.9,11.4-.9,2.1.4,7,1.6,8.9,4.4,6.9,18.7,17.8,26.8,18.7,3.4.4,10.2-4.1,11.4-7.3Z"/>
          <path class="cls-19" d="M765,1603.4s-10.3,5.9-13,3.9c-2.9-2.2,1.8-11.3,0-14.4-2.4-4.2-14.7-2.9-18.7-5.8-9.9-7.3-11.7-35.6-19.1-45.5-7.4-9.9-31.4-20-42.8-24.8-14.5-6-58-23.9-58-23.9,0,0,11.5,45,22.9,54.4,3.7,3,14.3,2,18.6,4.1,15,7.3,32.9,42.2,53.5,49.5,3.3,1.2,10.6-.9,14,0,7.3,2,14.3,16.2,21.5,18.7,4.4,1.5,17.4-2,20.3-5.7,1.6-2.1.8-10.6.8-10.6h0Z"/>
        </g>
      </g>
      <g id="jaw_group">
        <g>
          <path class="cls-16" d="M574.2,1571.7c-5.9-5.3-24.1-6.5-31.7-3.9-3.1,1.1-9.3,6-9.2,9.3.2,4.9,12.2,10.2,12.3,15.1.2,8.2-12.9,21.4-19.5,26.2-2.9,2.1-11.8,1.6-13.7,4.7-4,6.2-1,23.1,2.6,29.5,9.5,17.1,50.4,31.7,62.5,47.1,4.5,5.8,6.2,22.1,11.7,27,3.9,3.6,14.9,6.5,20.2,6.6,4,0,13.5-1,15.6-4.5,2.2-3.8-1.4-13.5-4-17-1.3-1.8-6.2-2.9-7.8-4.4-10.2-9.7-30-33.6-30-47.6,0-6,11.2-14.6,12.8-20.5,1-3.8.8-12.2-.6-15.9-1.6-4.5-7-15.7-11.8-15.2-4.2.4-5.5,11.6-7.8,15.2s-6.4,13.7-10.8,13.8-11.8-8.9-11.7-13.4c.2-9.7,23.2-19.4,26.6-28.5,2.1-5.7-1-19.5-5.5-23.5h0Z"/>
          <path class="cls-19" d="M542.3,1587.1s4.9-4.7,7-4.8c3.8-.3,12.2,2.9,13.9,6.3,1.2,2.5.8,8.7-.6,11.1-3.9,6.8-15.3,19.4-22.9,21.2-3.4.8-14.5-2.2-14.5-2.2,0,0,20.2-18.1,20.6-26.4,0-1.5-3.5-5.1-3.5-5.1h0Z"/>
          <path class="cls-19" d="M571.9,1648.1c2.5,3.2,11.2,11.6,11.2,11.6,0,0,11-14.7,12.8-20.5,1.1-3.8.3-12-.6-15.9-1.1-4.7-7.3-16.2-11.8-15.2-4.2.9-5.9,11.3-7.8,15.2s-10.8,13.8-10.8,13.8c0,0,5,8.5,7,11h0Z"/>
        </g>
      </g>
      <g>
        <path class="cls-16" d="M409.1,1356.8c-2.7.5-10.4,3.6-10.4,3.6,0,0-6.3-6.4-9.1-6.4-3.1,0-9.4,4-10.2,7-.9,3.4,3.7,13.7,3.7,13.7l-24.3,85.2s-6.7,3.5-8,5.5c-1.1,1.8-1.1,6.9.3,8.6,2.2,2.6,13.4,2.8,13.4,2.8,0,0,2.5,6.9,4.5,7.8,3.1,1.3,11.1-2.6,12-5.8.8-3-6.7-10.3-6.7-10.3l22.4-87s11.9-6.5,16.4-7c3.4-.4,11.7,2,13.5-.8,2.3-3.5-2.3-13.6-5.9-15.7-2.5-1.5-8.7-1.8-11.5-1.2h0Z"/>
        <path class="cls-19" d="M415.2,1374.7s1.8-4.6.9-5.7c-2-2.5-9.8-2.2-12.8-1.1-3.4,1.3-10.6,5-12.1,8.4-8.3,18.4-18.4,64.2-25,86.4-.7,2.4,8,6,8,6l22.4-87s11.8-5.3,14.1-6.2,4.5-.8,4.5-.8h0Z"/>
      </g>
      <g>
        <path class="cls-16" d="M733.7,1678.7c2.6-.8,10.9-1.7,10.9-1.7,0,0,2.5-8.6,5-10,2.7-1.5,10.2-.9,12.3,1.4,2.4,2.6,3.2,13.8,3.2,13.8l61.7,63.6s7.6-.1,9.7,1.1c1.9,1.1,4.2,5.6,3.8,7.7-.7,3.3-10.5,8.8-10.5,8.8,0,0,1.1,7.2-.3,9-2.1,2.6-11,3-13.3.6-2.1-2.2,1.1-12.2,1.1-12.2l-60.8-66.1s-13.6,0-17.7,1.5c-3.2,1.2-9.4,7.3-12.3,5.6-3.7-2-4.4-13-2.2-16.6,1.5-2.5,6.8-5.6,9.6-6.5h0Z"/>
        <path class="cls-19" d="M736.7,1697.3s-3.7-3.2-3.5-4.6c.5-3.2,7.5-6.6,10.7-7,3.7-.5,11.7-.6,14.6,1.6,16,12.3,46.5,47.9,62.8,64.3,1.8,1.8-4.2,9.1-4.2,9.1l-60.8-66.1s-12.9.9-15.3,1.2-4.3,1.4-4.3,1.4h0Z"/>
      </g>
      <g>
        <path class="cls-19" d="M1484.7,1399.2l-45.6,22.7c-15.1,7.5-21.3,25.8-13.9,40.9l29.1,60c7.6,15.6,26.7,21.9,42,13.7l65.1-34.5c18.3-9.7,21.9-34.4,7.2-49l-48.7-48.2c-9.3-9.2-23.5-11.5-35.3-5.7h0Z"/>
        <path class="cls-16" d="M1471.1,1510.9l-5.2,2.6c-1.7.9-2.4,3-1.6,4.7l3.3,6.9c.9,1.8,3.1,2.5,4.8,1.6l7.5-4c2.1-1.1,2.5-4,.8-5.6l-5.6-5.5c-1.1-1.1-2.7-1.3-4.1-.7h0Z"/>
        <path class="cls-16" d="M1494.7,1519.6l-4.2-.6c-1.4-.2-2.7.7-2.9,2.1l-.9,5.5c-.2,1.4.8,2.8,2.2,2.9l6.1.8c1.7.2,3.2-1.3,2.8-3l-1-5.6c-.2-1.1-1.1-1.9-2.1-2.1h0Z"/>
        <path class="cls-16" d="M1541.7,1436.6l-4.2-.6c-1.4-.2-2.7.7-2.9,2.1l-.9,5.5c-.2,1.4.8,2.8,2.2,2.9l6.1.8c1.7.2,3.2-1.3,2.8-3l-1-5.6c-.2-1.1-1.1-1.9-2.1-2.1h0Z"/>
        <path class="cls-16" d="M1546.9,1453.4c1.8-1.4,7.4-1.5,9.1,0,2.5,2.3,2.7,11.7,1.9,15-2,9-10.9,24.3-18,29-11.2,7.5-38,13-51,11s-35.9-9.2-44-30c-7-18-.8-37.7,8-45,8.9-7.4,32.5-16.6,44-15,7.3,1,22,5,26,14,4.3,9.6,5.8,35-2,42-6.9,6.2-29.8,8.9-37,3-4.6-3.8-9.6-17.6-7-23,2.6-5.2,14.2-12.5,20-12,1.6.1,5.2,1.6,5.5,3.2.4,1.9-2,5.6-3.5,6.8-2,1.7-8.5,2.5-9,5-.5,2.7,4.9,7.9,7.7,8,4.4,0,13.9-4.8,15.3-9,2-6.1-2.4-18.9-8-22-8.6-4.8-30.2-3.4-37,3-4.4,4.2-8.7,17-8,23,.9,7.8,9.8,22.2,16,27,7.3,5.5,26.9,7.3,36,6,8-1.1,21.7-9.9,26-17,3.3-5.3,4-19.2,9-23Z"/>
      </g>
      <g>
        <path class="cls-19" d="M1350.7,1644.2c-13.8,50.2-77.8,99.2-98.6,93.5-13.6-3.7-49.9-80.3-36.1-130.5s53.6-60.2,86-51.2c32.5,8.9,62.5,38.1,48.7,88.2Z"/>
        <path class="cls-16" d="M1302.8,1609.8c-9.1,33-32,81.5-37.5,80-5.5-1.5.7-55.6,9.8-88.6s17.5-32.3,23-30.8,13.8,6.4,4.8,39.3h0Z"/>
        <path class="cls-16" d="M1276.3,1699.2c-3.4,12.2-16.1,29.1-20.7,27.8s-6.1-22.4-2.7-34.6,10.3-10.9,14.9-9.7c4.6,1.3,11.9,4.2,8.5,16.5h0Z"/>
        <path class="cls-16" d="M1242.5,1608.3c14.3,4.2,20.4,15.7,22.3,15.2,2.5-.7-6-15.7-15.1-20.1-12.1-5.9-25.5-3.2-30,6-1.3,2.8-3.3,8.3-1.3,8.8,2.6.7,9.1-14.3,24.1-9.9Z"/>
        <path class="cls-16" d="M1238.5,1630.1c13.7,1.1,21.1,11.1,22.7,10.1,2.1-1.2-7.9-14-16.9-16.5-11.9-3.3-23.8,2.1-26.5,12.1-.8,3-1.8,8.8.1,8.9,2.5.1,6.1-15.8,20.5-14.6h0Z"/>
        <path class="cls-16" d="M1240.1,1649.6c11.7,1,18.1,9.3,19.5,8.6,1.8-1-6.9-11.7-14.5-13.8-10.2-2.8-20.3,1.6-22.6,9.8-.7,2.4-1.4,7.3.2,7.4,2.1.1,5.1-13,17.4-12h0Z"/>
        <path class="cls-16" d="M1241.7,1666.6c10,.6,15.2,8.5,16.4,7.7,1.6-1-5.4-11.3-11.9-13.1-8.7-2.4-17.5,2.4-19.8,10.6-.7,2.4-1.5,7.2-.1,7.3,1.8,0,4.9-13.1,15.4-12.5h0Z"/>
        <path class="cls-16" d="M1328.5,1632c-14.4-3.7-25.6,3.1-26.9,1.6-1.8-1.9,13.2-10.4,23.2-9.6,13.4,1.1,23.6,10.3,22.7,20.5-.2,3.1-1.4,8.9-3.4,8.3-2.6-.8-.6-16.9-15.7-20.8h0Z"/>
        <path class="cls-16" d="M1320.8,1652.8c-12.3-6-23.8-1.2-24.7-2.9-1.2-2.1,14-8,22.9-5.6,11.9,3.3,19.3,14,16.6,23.9-.8,3-3,8.5-4.7,7.6-2.2-1.2,2.8-16.7-10.2-23h0Z"/>
        <path class="cls-16" d="M1309.4,1668.8c-10.6-5.1-20.3-1.2-21.2-2.6-1.1-1.8,11.9-6.5,19.5-4.4,10.2,2.8,16.6,11.7,14.4,19.9-.7,2.4-2.5,7-3.9,6.2-1.9-1,2.2-13.8-8.9-19.2h0Z"/>
        <path class="cls-16" d="M1299.3,1682.6c-8.9-4.6-17.4-.4-18.1-1.7-.8-1.7,10.4-6.9,16.9-5.2,8.7,2.4,13.8,11,11.6,19.2-.7,2.4-2.4,7-3.6,6.3-1.6-.9,2.5-13.8-6.9-18.6h0Z"/>
        <path class="cls-16" d="M1241.9,1680.2c8.8.2,13,7.9,14.1,7.1,1.4-1.1-4.4-11-10-12.6-7.5-2.1-15.4,2.9-17.7,11.2-.7,2.4-1.6,7.2-.4,7.2,1.6,0,4.8-13.1,13.9-12.9h0Z"/>
        <path class="cls-16" d="M1291.9,1694.1c-7.6-4.3-15.2.2-15.8-1.1-.7-1.7,9.4-7.2,15-5.7,7.5,2.1,11.8,10.4,9.5,18.6-.7,2.4-2.3,7-3.4,6.4-1.4-.8,2.6-13.7-5.4-18.2h0Z"/>
        <path class="cls-16" d="M1242.2,1693c7.1.4,10.8,6.1,11.7,5.5,1.1-.7-3.9-8-8.6-9.2-6.2-1.7-12.5,1.6-14.1,7.4-.5,1.7-1.1,5.1,0,5.1,1.3,0,3.5-9.2,11-8.8h0Z"/>
        <path class="cls-16" d="M1283.4,1704.4c-6.3-3.3-12.4-.3-12.9-1.3-.6-1.2,7.4-4.8,12.1-3.6,6.2,1.7,9.9,7.8,8.3,13.5-.5,1.7-1.7,4.9-2.6,4.4-1.1-.6,1.7-9.7-4.9-13.1h0Z"/>
        <path class="cls-16" d="M1292.2,1570.2s-12.2-4.8-26.7-2.9c-24.3,3.2-34.2,19.3-34.2,19.3,0,0,12.9-4.6,26.6-2.4,18.6,3,19.4,8.7,21.8,12l12.5-25.9h0Z"/>
        <path class="cls-16" d="M1303.7,1573.8s13,2.2,24.4,11.1c19.3,15.1,19.5,34.1,19.5,34.1,0,0-8.8-10.6-21.6-15.7-17.5-6.9-21.1-2.4-24.8-.8l2.5-28.7h0Z"/>
      </g>
      <g id="Layer_8">
        <path class="cls-26" d="M1392.5,980s35.3-26.8,45.7-37.9c6.6-7,21.7-21.6,23-31.8,1-7.6-3.9-25.7-10.1-27.9-4-1.4-14.4,5.6-14.5,10.5s14.6,5.8,13.8,10.7c-.7,4.1-10.4,5.6-13.8,4.3-4.2-1.6-11.5-10.9-10.9-16,1.1-9.4,17.9-24.7,25.8-23.3,11.1,1.9,25.3,29.9,25.2,43.1,0,13.4-18,35.3-26,45.1-8.2,10.1-38.2,33.2-38.2,33.2l-20-10.1h0Z"/>
        <path class="cls-26" d="M1347.8,999.4s11.1-42.9,12.3-58c.8-9.6,3.5-30.4-1.7-39.3-3.9-6.6-19-17.7-25.2-15.5-4,1.4-7.8,13.3-4.8,17.3,2.9,4,15-4.5,17.4-.2,2,3.6-4.7,10.9-8.1,12-4.3,1.4-15.7-1.4-18.5-5.8-5-8-1.3-30.4,5.7-34.3,9.9-5.5,38.4,7.7,46.5,18.1,8.3,10.6,7.8,38.8,7.6,51.5s-9.3,49.7-9.3,49.7l-21.9,4.5h0Z"/>
        <path class="cls-26" d="M1465.2,1018s37.6-11.2,49.6-17.2c7.6-3.8,24.7-11.2,29-19.3,3.2-6,4.7-22.5.2-26.2-2.9-2.4-13.6.2-15.3,4.2-1.7,4,10.3,9.4,8.1,13.1-1.8,3.2-10.4,1.4-12.8-.7-3-2.6-6.1-12.6-4-16.7,3.8-7.4,22.5-14.9,28.6-11.3,8.7,5,11.7,32.6,7.5,43.6-4.2,11.1-25.9,23.7-35.6,29.3-9.9,5.8-42,15.7-42,15.7l-13.4-14.6h0Z"/>
        <path class="cls-26" d="M633.7,598.4s-28-34.4-35.4-47.6c-4.7-8.4-15.9-26.2-14.8-36.4.8-7.6,9.9-24,16.5-24.7,4.2-.4,12.6,8.8,11.6,13.7s-15.5,2.2-15.9,7.1c-.3,4.2,8.8,7.9,12.4,7.5,4.4-.5,13.7-7.8,14.4-13,1.2-9.4-11.5-28.2-19.5-28.8-11.3-.8-31.6,23-34.7,35.9-3.1,12.9,9.1,38.5,14.6,50s29.2,41.3,29.2,41.3l21.8-5.1h0Z"/>
        <path class="cls-26" d="M679.4,629.5s-.5-44.3,1.9-59.3c1.5-9.5,3.8-30.4,11-37.7,5.4-5.5,22.7-12.6,28.2-9.1,3.6,2.3,4.4,14.8.6,17.9-3.8,3.1-13.5-7.9-16.9-4.3-2.8,3,2,11.7,5,13.5,3.8,2.3,15.6,2.4,19.3-1.3,6.7-6.6,8.5-29.2,2.6-34.7-8.3-7.6-39.1-1.6-49.5,6.6-10.6,8.3-16.8,35.9-19.7,48.3-2.9,12.7-2.8,50.5-2.8,50.5l20.2,9.6h0Z"/>
        <path class="cls-26" d="M554.1,618s-33.9-19.8-44.1-28.5c-6.5-5.5-21.3-16.8-23.6-25.6-1.7-6.6.8-23,6-25.6,3.4-1.7,13.2,3.4,13.9,7.7s-12.2,6.7-11,10.8c1,3.5,9.8,3.8,12.6,2.4,3.5-1.8,9-10.8,7.9-15.2-1.9-8.1-18.3-19.8-25.1-17.8-9.6,2.8-19.1,28.9-17.6,40.6s19.5,29.1,27.6,37c8.3,8,37,25.2,37,25.2l16.5-11h0Z"/>
        <path class="cls-26" d="M1335.8,298.3s16.4-41.2,19.5-56c2-9.4,7.3-29.7,3.2-39.2-3-7-16.7-19.9-23.1-18.6-4.2.9-9.4,12.2-7,16.5,2.4,4.3,15.5-2.5,17.3,2,1.6,3.9-6.1,10.2-9.6,10.8-4.4.8-15.4-3.4-17.6-8.1-3.9-8.6,2.6-30.3,10-33.3,10.5-4.2,37.1,12.5,43.9,23.9,6.9,11.5,2.8,39.5,1.1,52.1s-15.5,48.2-15.5,48.2l-22.3,1.7h0Z"/>
        <path class="cls-26" d="M1301.5,341.6s-12.7-42.5-19.5-56c-4.3-8.6-12.7-27.9-21.8-32.7-6.8-3.6-25.4-5.3-29.6-.2-2.7,3.2.2,15.4,4.8,17.3,4.6,1.9,10.6-11.6,14.8-9.2,3.6,2,1.6,11.7-.8,14.4-2.9,3.4-14.2,7-18.8,4.6-8.4-4.3-16.8-25.4-12.8-32.3,5.6-9.8,36.8-13.2,49.2-8.6,12.6,4.8,26.8,29.2,33.2,40.2,6.6,11.2,17.8,47.4,17.8,47.4l-16.4,15.2h0Z"/>
        <path class="cls-26" d="M1417.6,293.2s26.4-29.1,33.6-40.4c4.6-7.2,15.3-22.4,14.9-31.5-.3-6.8-7.6-21.7-13.4-22.6-3.7-.6-11.6,7.2-10.9,11.5s13.6,2.7,13.7,7.1c0,3.7-8.2,6.6-11.3,6-3.9-.7-11.8-7.6-12.1-12.2-.6-8.3,11.5-24.4,18.6-24.5,10-.2,26.9,21.9,29,33.4,2.1,11.7-9.9,33.7-15.3,43.5-5.5,10.1-27.8,35.1-27.8,35.1l-19-5.5h0Z"/>
      </g>
      <g id="Layer_7">
        <path class="cls-26" d="M1257,492.9s43.1-88.7,62.7-116c12.5-17.4,37.8-56.6,59.4-64.1,16.1-5.5,57.7-2.5,65.2,10,4.8,8.1-6,33.7-16.7,36.2-10.7,2.5-19-29.2-29.3-25.4-8.7,3.2-7.7,25.2-3.5,32,5.3,8.4,28.7,20.3,39.7,16.7,19.9-6.5,46-49.7,39.7-66.4-8.9-23.5-76.1-42.2-105-36.2-29.3,6-69.2,54.6-87.1,76.4-18.4,22.3-55.9,97.6-55.9,97.6l30.7,39.2h0Z"/>
        <path class="cls-26" d="M1054.3,372.1s-74.9-42.2-100.8-52.1c-16.5-6.3-51.6-22-69.9-17.4-13.6,3.4-40.9,24.2-40.4,36.3.3,7.8,19.3,20.6,27.8,17.5s0-28.7,8.7-30.7c7.4-1.7,16.7,13.9,16.8,20.5.2,8.2-10.6,26.9-19.8,29.4-16.7,4.5-54.1-13.5-57.3-27.9-4.5-20.2,33.5-63.4,56-72.3,22.9-9.1,72.3,6.4,94.5,13.4,22.7,7.1,82.5,42.1,82.5,42.1l1.7,41.3h0Z"/>
        <path class="cls-26" d="M934.2,263.3s-26.1-57.2-37.1-74.2c-7-10.8-21-35.2-33.8-40.4-9.5-3.8-34.6-3.3-39.5,4-3.1,4.7,2.5,20.5,8.9,22.3,6.3,1.8,12.3-17,18.4-14.4,5.1,2.2,3.8,15.4,1.1,19.3-3.4,4.9-17.9,11.3-24.4,8.9-11.8-4.5-26.1-31.3-21.8-41.1,6.1-13.9,47.1-23,64.3-18.6,17.4,4.5,39.9,34.9,50.1,48.6,10.4,14,30.6,60.4,30.6,60.4l-16.8,25.1h0Z"/>
        <path class="cls-26" d="M1141.8,418.4s-79.7-12.2-105.7-12.4c-16.5-.1-52.5-2.2-67.1,7.9-10.8,7.5-27.9,34.8-23.4,45.2,2.9,6.7,23.8,11.6,30.2,6.1s-9.6-25.2-2.5-29.9c6-4,19.2,6.7,21.5,12.4,2.9,7.1-.4,27.1-7.6,32.4-13.1,9.5-52,6.1-59.5-5.5-10.6-16.2,8.3-66.7,25.2-82s65.5-18.3,87.3-19.6c22.3-1.3,86.4,9.6,86.4,9.6l15.2,35.7h0Z"/>
        <path class="cls-26" d="M775,763.1s-66.6-72.7-93.3-93.2c-17-13.1-52.4-43.5-75.3-44.4-17-.7-56,14-59.6,28.2-2.3,9.1,15.3,30.6,26.3,29.9,10.9-.7,9.9-33.4,20.8-32.7,9.2.6,14.5,22,12.5,29.6-2.6,9.6-21.7,27.6-33.2,27.4-21-.5-58.3-34.5-57-52.3,1.8-25,60.9-62.2,90.2-64.7,29.8-2.6,81.9,32.5,105.3,48.3,24,16.1,81.4,77.6,81.4,77.6l-18.2,46.3h0Z"/>
        <path class="cls-26" d="M1232.9,1102.2s82.7-53.7,113.7-66.8c19.7-8.4,61.6-28.9,84-24.1,16.7,3.6,50.7,27.7,50.6,42.3,0,9.4-22.6,25.8-33,22.4-10.4-3.4-1.2-34.8-11.9-36.9-9.1-1.7-19.6,17.6-19.5,25.6.1,9.9,14.1,32.2,25.3,34.8,20.4,4.8,65.1-18.8,68.3-36.3,4.5-24.7-43.3-75.4-71.1-85.3-28.2-10-87.4,11-114.1,20.3-27.3,9.6-98.3,54.7-98.3,54.7l6,49.4h0Z"/>
      </g>
      <g id="Layer_6">
        <path class="cls-20" d="M1016,1657.1c-1.3,5.9-.1,19.8,14.7,23.1,14.8,3.3,17.5-8.9,27.9-10.8,5.6-1.1,20.8-4.2,29.4,7.9,10.8,15.1,17.8,27,24.1,33.1,4.1,3.9,17.5,15.7,19.7,13.9,2.7-2.2-13.8-16.3-15.9-19.6-2.1-3.3-12.2-24.6-15.9-30.4-4.6-7.2-8.3-20.2-25.2-26.8-18.1-7-29.1-7.8-38.1-7-8,.7-18.6,7.2-20.7,16.7h0Z"/>
        <path class="cls-20" d="M1057.5,1694.7c-2.4,3.6-5.3,13.3,3.8,19.4s14.2-1.3,21.6,0c4.1.8,15.1,2.6,17.7,13.1,3.3,13,4.8,22.9,7.5,28.7,1.7,3.7,7.6,15.2,9.6,14.6,2.4-.8-5-14.6-5.5-17.4s-1.7-19.8-2.7-24.7c-1.2-6.1-.2-15.8-9.9-24.7-10.3-9.5-17.5-12.9-23.8-14.8-5.6-1.6-14.4,0-18.3,5.8h0Z"/>
        <path class="cls-36" d="M987.6,1757.3c-33.5-7.4-117.6-62.9-86.5-162.2,26.9-86,260.8-112.1,257.5-155.9-3.7-50.4-360.6-11.3-364.5-174.8-4.1-170.9,422.2-177.7,415-248.9-7.8-76.7-418.9-78-437.3-259-16.6-162.5,434.4-140.8,432.5-257.7-1.8-110.2-258.5-99.3-279.9-281.6-7.9-67.3,30.3-154.6,84.5-167.2,44.8-10.5,99.5,36.6,97.2,67.9-2.2,30.4-58.9,60.3-78.7,39-10.6-11.4-13.2-40.3-3.9-50.3,8.8-9.4,27.9-2,29.2,6.3,1.2,7.8-13.9,14-12.6,20.1,1.7,8.2,31.9,12.6,37.9-2.5,4.5-11.3-5.7-30.7-16.5-40.2-20.5-18-52.5-8.9-71.9,10.1-27.8,27.1-36.9,79.2-32.1,105.6,29.2,158.4,297.1,130.7,304.2,290.4,8.8,196.1-403.2,171-402.4,255.2.8,82.5,439.3,96.2,439.3,259s-404.3,175.9-403.3,255.2c1,80.5,341.1,32.7,358.6,154.6,19.7,137.5-271.2,149.5-267.3,197.4,1.9,23.9,98.1,19.9,88.4,88-6.8,47.8-53.5,59.1-87.5,51.6h0Z"/>
        <path class="cls-20" d="M1242.4,567.3c8.4-19.5-2.6-67.6-13.3-85.7-8.9-14.9-53.7-38-53.7-38,0,0,33.7,24.4,28.7,61.7-3,22.7-22.8,36.2-34,43.1-68.1,42.1-230.3,65-298.3,97.1-29.7,14-43.7,40.1-40.7,73,2.8,30.6,32,45.4,32,45.4,0,0-5.6-34.8,25-46.5,77-29.5,209-54.4,278-89,21.4-10.7,66-37.4,76.3-61.1h0Z"/>
        <path class="cls-20" d="M1263.1,1085.9c11-14.7,11.8-46.1-19-70.3-13-10.2-61-29.5-61-29.5,0,0,32,27.2,25,38.5-10.2,16.4-42,29.5-55,34-53.2,18.6-148.5,37.2-217,68-73,32.9-76.9,88.8-72,116.8s41,43.1,41,43.1c0,0-25.6-26.3,17-52.2,69-41.9,170-60.1,245-89.6,22.1-8.7,80.9-38.8,96-59h0Z"/>
        <path class="cls-20" d="M1218.1,1502.1c8.7-17.7-2-37.4-12-52.2-13.2-19.4-61-24.9-61-24.9,0,0,10,7.9,8,20.4-2.7,17-40,28.3-59,36.3-16.4,6.8-80.9,26.9-112,43.1-24,12.5-26.2,38.6-23,56.7,6,34,31,43.1,31,43.1,0,0-11.3-9.6,7-22.7,19-13.6,128.2-46.4,151-55.6,17-6.8,60-23.8,70-44.2h0Z"/>
        <path class="cls-20" d="M1065.1,93.4s18.2,17.4,23,26c5,9,4.1,21.4,0,27-6.3,8.6-26.1,16.4-36.8,16.8-6.2.2-16.2-2.8-16.3-14,0-9.8,5.1-18.8,5.1-18.8,0,0,0,12,22.4,9.2,29.4-3.6,9-37.8,9-37.8"/>
        <path class="cls-20" d="M923.3,1674.9c3.1,3,8,11.8.4,19.8s-14.1,1.7-21.1,4.7c-3.8,1.6-14.2,5.8-14.5,16.6-.4,13.4.2,23.4-1.2,29.6-.9,4-4.2,16.5-6.2,16.3-2.5-.2,1.7-15.4,1.7-18.2s-2.6-19.7-2.7-24.7c-.1-6.2-3.2-15.5,4.4-26.3,8-11.5,14.3-16.4,20.1-19.5,5.1-2.8,14.1-3.1,19.1,1.7h0Z"/>
        <path class="cls-20" d="M955.6,1716.4c3.9,1.9,11.2,8.9,6.4,18.7s-12.9,5.9-18.7,10.9c-3.1,2.7-11.7,9.8-8.8,20.2,3.7,12.9,7.2,22.2,7.8,28.6.4,4.1,1,17-1,17.4-2.4.5-3-15.2-3.9-17.8s-8.4-18-10-22.7c-2-5.9-7.7-13.8-3.8-26.4,4.2-13.4,8.7-20,13.2-24.7,4-4.2,12.5-7.2,18.8-4.2h0Z"/>
        <path class="cls-20" d="M1002.1,1742.2c4.3.2,13.8,3.7,13.2,14.7s-9.6,10.5-12.9,17.3c-1.8,3.7-6.9,13.7-.2,22,8.5,10.5,15.4,17.6,18.4,23.2,2,3.6,7.6,15.2,5.9,16.4-2,1.4-8.7-12.8-10.6-14.9-1.9-2.1-14.8-13.2-18.1-17-4.1-4.6-12.5-9.7-13.8-22.8-1.4-13.9.2-21.8,2.5-27.9,2.1-5.4,8.6-11.6,15.6-11.2h0Z"/>
      </g>
      <g id="Layer_3">
        <path class="cls-11" d="M1480.9,816.5c21.9,14.6,50.7,40.3,97.5,41.1,58.8,1,66.3-24.4,99.9-39.1,29.9-13,70.8-2.1,116.4-25.3,31-15.8,45.7-116.1,45.7-116.1h-522.1s30.1,102.1,63.4,118.8c18.3,9.2,78.2,14.5,99.1,20.6"/>
        <path class="cls-13" d="M1874.8,632.4h-581.6v71.8h.2s0,0,0,0c0,14.6,130.1,26.5,290.7,26.5s290.7-11.8,290.7-26.5,0,0,0,0h0v-71.8Z"/>
        <path class="cls-12" d="M1668,783.3s1.1,14.8-9.1,14.8-10.3-2.3-12.6-2.3-5.7,6.9-9.1,6.9c-10.3,0-9.1-1.1-11.7-1.1s-7.7,9.1-11.1,9.1c-11.4,0-10.3-9.1-10.3-9.1v-144h64v125.7h0Z"/>
        <path class="cls-17" d="M1604,756.7s4.6,3.8,9.1,3.8,8-10.3,12.6-10.3,6.9,4.6,10.3,4.6,7-8,10.3-8,6.9,4.6,11.4,4.6,10.3-13.1,10.3-13.1v-6.3s-5.9,12.6-10.3,12.6-6.9-4.6-11.4-4.6-6.9,8-10.3,8.3-6.9-4.9-11.4-4.9-6.9,10.3-11.4,10.3-9.1-3.5-9.1-3.5v6.5h0Z"/>
        <path class="cls-22" d="M1604,809.2s4.6,3.8,9.1,3.8,8-10.3,12.6-10.3,6.9,4.6,10.3,4.6,7-8,10.3-8,6.9,4.6,11.4,4.6,10.3-13.1,10.3-13.1v-6.3s-5.9,12.6-10.3,12.6-6.9-4.6-11.4-4.6-6.9,8-10.3,8.3-6.9-4.9-11.4-4.9-6.9,10.3-11.4,10.3-9.1-3.5-9.1-3.5v6.5h0Z"/>
        <path class="cls-17" d="M1604,741.8s4.6,3.8,9.1,3.8,8-10.3,12.6-10.3,6.9,4.6,10.3,4.6,7-8,10.3-8,6.9,4.6,11.4,4.6,10.3-13.1,10.3-13.1v-6.3s-5.9,12.6-10.3,12.6-6.9-4.6-11.4-4.6-6.9,8-10.3,8.3-6.9-4.9-11.4-4.9-6.9,10.3-11.4,10.3-9.1-3.5-9.1-3.5v6.5h0Z"/>
        <path class="cls-17" d="M1604,688.1s4.6,3.8,9.1,3.8,8-10.3,12.6-10.3,6.9,4.6,10.3,4.6,7-8,10.3-8,6.9,4.6,11.4,4.6,10.3-13.1,10.3-13.1v-6.3s-5.9,12.6-10.3,12.6-6.9-4.6-11.4-4.6-6.9,8-10.3,8.3-6.9-4.9-11.4-4.9-6.9,10.3-11.4,10.3-9.1-3.5-9.1-3.5v6.5h0Z"/>
        <path class="cls-7" d="M1371.4,753.3s-.7,12.2,6,12.2,6.7-1.9,8.2-1.9,3.7,5.6,6,5.6c6.7,0,6-.9,7.6-.9s5,7.5,7.3,7.5c7.4,0,6.7-7.5,6.7-7.5v-117.8h-41.7v102.9h0Z"/>
        <path class="cls-6" d="M1420.6,756.7s-.5,11.8,2.9,11.8c5.7,0,5.7-1.1,8-1.1,3.4,0,3.4,5.7,6.9,5.7s3.4-1.3,3.4-1.3v-117.8h-21.2v102.9h0Z"/>
        <path class="cls-17" d="M1413.2,731.5s-3,3.1-6,3.1-5.2-8.4-8.2-8.4-4.5,3.7-6.7,3.7-4.6-6.5-6.7-6.5-4.5,3.7-7.4,3.7-6.7-10.8-6.7-10.8v-5.2s3.8,10.3,6.7,10.3,4.5-3.7,7.4-3.7,4.5,6.5,6.7,6.8,4.5-4,7.4-4,4.5,8.4,7.4,8.4,6-2.9,6-2.9v5.4h0Z"/>
        <path class="cls-22" d="M1413.2,774.5s-3,3.1-6,3.1-5.2-8.4-8.2-8.4-4.5,3.7-6.7,3.7-4.6-6.5-6.7-6.5-4.5,3.7-7.4,3.7-6.7-10.8-6.7-10.8v-5.2s3.8,10.3,6.7,10.3,4.5-3.7,7.4-3.7,4.5,6.5,6.7,6.8,4.5-4,7.4-4,4.5,8.4,7.4,8.4,6-2.9,6-2.9v5.4h0Z"/>
        <path class="cls-17" d="M1413.2,719.3s-3,3.1-6,3.1-5.2-8.4-8.2-8.4-4.5,3.7-6.7,3.7-4.6-6.5-6.7-6.5-4.5,3.7-7.4,3.7-6.7-10.8-6.7-10.8v-5.2s3.8,10.3,6.7,10.3,4.5-3.7,7.4-3.7,4.5,6.5,6.7,6.8,4.5-4,7.4-4,4.5,8.4,7.4,8.4,6-2.9,6-2.9v5.4h0Z"/>
        <path class="cls-17" d="M1413.2,675.4s-3,3.1-6,3.1-5.2-8.4-8.2-8.4-4.5,3.7-6.7,3.7-4.6-6.5-6.7-6.5-4.5,3.7-7.4,3.7-6.7-10.8-6.7-10.8v-5.2s3.8,10.3,6.7,10.3,4.5-3.7,7.4-3.7,4.5,6.5,6.7,6.8,4.5-4,7.4-4,4.5,8.4,7.4,8.4,6-2.9,6-2.9v5.4h0Z"/>
        <path class="cls-22" d="M1420.7,762.5s3.3,4.6,5.1,4.9c1.6.3,4.5-2.8,6.2-2.5,2.1.4,4.2,5.6,6.4,5.9.9.1,3.4-1.7,3.4-1.7v2.6s-2.4,2.6-3.4,2.5c-2.1-.1-4.2-5.5-6.3-5.9-1.7-.3-4.6,2.7-6.3,2.5s-5.1-4.2-5.1-4.2v-4.1h0Z"/>
        <path class="cls-17" d="M1420.7,698.5s3.3,4.6,5.1,4.9c1.6.3,4.5-2.8,6.2-2.5,2.1.4,4.2,5.6,6.4,5.9.9.1,3.4-1.7,3.4-1.7v2.6s-2.4,2.6-3.4,2.5c-2.1-.1-4.2-5.5-6.3-5.9-1.7-.3-4.6,2.7-6.3,2.5s-5.1-4.2-5.1-4.2v-4.1h0Z"/>
        <path class="cls-17" d="M1420.7,690.5s3.3,4.6,5.1,4.9c1.6.3,4.5-2.8,6.2-2.5,2.1.4,4.2,5.6,6.4,5.9.9.1,3.4-1.7,3.4-1.7v2.6s-2.4,2.6-3.4,2.5c-2.1-.1-4.2-5.5-6.3-5.9-1.7-.3-4.6,2.7-6.3,2.5s-5.1-4.2-5.1-4.2v-4.1h0Z"/>
        <path class="cls-17" d="M1420.7,746.5s3.3,4.6,5.1,4.9c1.6.3,4.5-2.8,6.2-2.5,2.1.4,4.2,5.6,6.4,5.9.9.1,3.4-1.7,3.4-1.7v2.6s-2.4,2.6-3.4,2.5c-2.1-.1-4.2-5.5-6.3-5.9-1.7-.3-4.6,2.7-6.3,2.5s-5.1-4.2-5.1-4.2v-4.1h0Z"/>
        <path class="cls-17" d="M1420.7,658.5s3.3,4.6,5.1,4.9c1.6.3,4.5-2.8,6.2-2.5,2.1.4,4.2,5.6,6.4,5.9.9.1,3.4-1.7,3.4-1.7v2.6s-2.4,2.6-3.4,2.5c-2.1-.1-4.2-5.5-6.3-5.9-1.7-.3-4.6,2.7-6.3,2.5s-5.1-4.2-5.1-4.2v-4.1h0Z"/>
        <path class="cls-5" d="M1787.9,752.2s.5,11.8-2.9,11.8c-5.7,0-5.7-1.1-8-1.1-3.4,0-3.4,5.7-6.9,5.7s-3.4-1.3-3.4-1.3v-117.8h21.2v102.9h0Z"/>
        <path class="cls-22" d="M1787.8,757.9s-3.3,4.6-5.1,4.9c-1.6.3-4.5-2.8-6.2-2.5-2.1.4-4.2,5.6-6.4,5.9-.9.1-3.4-1.7-3.4-1.7v2.6s2.4,2.6,3.4,2.5c2.1-.1,4.2-5.5,6.3-5.9,1.7-.3,4.6,2.7,6.3,2.5s5.1-4.2,5.1-4.2v-4.1h0Z"/>
        <path class="cls-17" d="M1787.8,693.9s-3.3,4.6-5.1,4.9c-1.6.3-4.5-2.8-6.2-2.5-2.1.4-4.2,5.6-6.4,5.9-.9.1-3.4-1.7-3.4-1.7v2.6s2.4,2.6,3.4,2.5c2.1-.1,4.2-5.5,6.3-5.9,1.7-.3,4.6,2.7,6.3,2.5s5.1-4.2,5.1-4.2v-4.1h0Z"/>
        <path class="cls-17" d="M1787.8,685.9s-3.3,4.6-5.1,4.9c-1.6.3-4.5-2.8-6.2-2.5-2.1.4-4.2,5.6-6.4,5.9-.9.1-3.4-1.7-3.4-1.7v2.6s2.4,2.6,3.4,2.5c2.1-.1,4.2-5.5,6.3-5.9,1.7-.3,4.6,2.7,6.3,2.5s5.1-4.2,5.1-4.2v-4.1h0Z"/>
        <path class="cls-17" d="M1787.8,741.9s-3.3,4.6-5.1,4.9c-1.6.3-4.5-2.8-6.2-2.5-2.1.4-4.2,5.6-6.4,5.9-.9.1-3.4-1.7-3.4-1.7v2.6s2.4,2.6,3.4,2.5c2.1-.1,4.2-5.5,6.3-5.9,1.7-.3,4.6,2.7,6.3,2.5s5.1-4.2,5.1-4.2v-4.1h0Z"/>
        <path class="cls-17" d="M1787.8,653.9s-3.3,4.6-5.1,4.9c-1.6.3-4.5-2.8-6.2-2.5-2.1.4-4.2,5.6-6.4,5.9-.9.1-3.4-1.7-3.4-1.7v2.6s2.4,2.6,3.4,2.5c2.1-.1,4.2-5.5,6.3-5.9,1.7-.3,4.6,2.7,6.3,2.5s5.1-4.2,5.1-4.2v-4.1h0Z"/>
        <ellipse class="cls-27" cx="1583.9" cy="631.9" rx="290.9" ry="28.3"/>
        <path class="cls-11" d="M1337.9,632.4s42.8-170.1,67.3-174.9c46-9,260.8,174.9,260.8,174.9h-328.1Z"/>
        <path class="cls-23" d="M1337.9,632.5s42.3-175.3,67.3-174.9c4.5,0-8,174.9-8,174.9h-59.3Z"/>
        <path class="cls-2" d="M1387.2,632.4s130.6-295.6,170.8-295.6,217.6,295.6,217.6,295.6h-388.4Z"/>
        <path class="cls-15" d="M1376.6,502.3s16-45.7,29.7-45.7c27.4,0,92.6,44.6,92.6,44.6,0,0-32,17.6-43.4,16-13-1.8-35.4-25.7-48-21.7-6.8,2.1-12.3,20.8-19.4,20.6-4.5-.1-11.4-13.7-11.4-13.7h0Z"/>
        <path class="cls-4" d="M1387.2,632.5s125.4-291.4,170.8-295.6c7.2-.7-69.4,295.6-69.4,295.6h-101.4Z"/>
        <path class="cls-1" d="M1829.6,632.3s-72.9-258.5-128.8-235.5c-78.9,32.5-246.2,235.5-246.2,235.5h374.9Z"/>
        <path class="cls-15" d="M1477.2,444s56-107.4,81.1-107.4,110.8,123.4,110.8,123.4c0,0-42.4-22.6-58.3-20.6-9.3,1.2-25.1,16.7-34.3,14.9-10.5-2.1-24.9-25.9-35.4-24-12.7,2.3-24.8,35.2-37.7,35.4-8.2.1-26.3-21.7-26.3-21.7h0Z"/>
        <path class="cls-21" d="M1707.4,395.3c8.5-1.4-94.3,237.1-94.3,237.1h-158.5c0,0,185.9-226.1,252.8-237.1h0Z"/>
        <path class="cls-16" d="M1416.6,645s15.2-51,24-52.4c16.4-2.7,92.9,52.4,92.9,52.4h-116.9,0Z"/>
        <path class="cls-15" d="M1784.5,502.8s-43.4-114.8-78.8-107.9c-44.7,8.6-134.8,107.9-134.8,107.9,0,0,14.3,21.2,22.3,23,23.6,5.2,66.1-33.8,90.3-33.1,12.9.4,32.8,21.5,45.6,23,14.1,1.7,55.4-12.9,55.4-12.9h0Z"/>
        <path class="cls-17" d="M1416.6,645.1s15.1-52.5,24-52.4c1.6,0-2.9,52.4-2.9,52.4h-21.1,0Z"/>
        <path class="cls-17" d="M1792.8,645s-14.5-45.4-22.8-46.7c-15.6-2.4-88.4,46.7-88.4,46.7h111.2Z"/>
        <path class="cls-16" d="M1792.8,645.1s-14.3-46.8-22.8-46.7c-1.5,0,2.7,46.7,2.7,46.7h20.1,0Z"/>
        <path class="cls-17" d="M1747.2,650.7s-10.9-64.3-17.2-66.1c-11.7-3.4-66.6,66.1-66.6,66.1h83.8Z"/>
        <path class="cls-16" d="M1747.2,650.8s-10.8-66.2-17.2-66.1c-1.2,0,2.1,66.1,2.1,66.1h15.1Z"/>
      </g>
      <g id="Layer_4">
        <path class="cls-19" d="M359.8,407.1c21.8,14.5,50.4,40,96.9,40.8,58.4,1,65.9-24.3,99.2-38.8,29.7-12.9,70.3-2,115.6-25.2,30.8-15.7,45.4-115.3,45.4-115.3H198.4s29.9,101.4,63,118c18.1,9.1,77.6,14.4,98.4,20.4"/>
        <path class="cls-26" d="M746.4,222.1H168.9v71.3h.2s0,0,0,0c0,14.5,129.2,26.3,288.6,26.3s288.6-11.8,288.6-26.3,0,0,0,0h0v-71.3h0Z"/>
        <path class="cls-10" d="M746.4,222.2H168.9v25.9h.2s0,0,0,0c0,10.8,129.7,27.4,289.1,27.4s288.1-16.6,288.1-27.4,0,0,0,0h0v-25.9Z"/>
        <g>
          <path class="cls-31" d="M169.2,220.3l-.3,18.7,6.3-9.3,3.7,3.8,6.6-3.8v18.8l5.6-11.3,3.9,6.5,6.8-5.7,10.2,23.8,7.1-20.4,2,10.2,5.7-3.2,6.7,8.2,1.7-12.2,3.8,7.3,6.6-6.1,8.2,16.1,4.3-10.1,1.9,6.7,11.6-12.2,5.5,15.5,7.7-13.4,3.3,7,2.7-7,10.4,20.2,1.8-13.8,5,5.5,4.3-4.9,2.3,6.1,5.3-13.1,4.5,11.3,3.9-4.3,7.5,10.9,6-18,2.9,10.7,4.9-10.7,11.7,18,7-13.4,6.2,10,5.9-11.2,7.9,16.8,3.3-13.6,5.7,4.5,3.4-5.7,6.8,10.2,4.5-12.5,2.3,4.5,4.5-7.8,6.8,23.6v-13.6l5.5,10.1,2.4-15.8,5.7,7.9,4.5-7.9,6.8,7.9v-8.3l7.8,16.2v-20.2s-187.1-7-244.9-14.9c-41.2-5.7-43.9-13.2-43.9-13.2"/>
          <path class="cls-31" d="M746,220.3l.3,18.7-6.3-9.3-3.7,3.8-6.6-3.8v18.8l-5.6-11.3-3.9,6.5-6.8-5.7-10.2,23.8-7.1-20.4-2,10.2-5.7-3.2-6.7,8.2-1.7-12.2-3.8,7.3-6.6-6.1-8.2,16.1-4.3-10.1-1.9,6.7-11.6-12.2-5.5,15.5-7.7-13.4-3.3,7-2.7-7-10.4,20.2-1.8-13.8-5,5.5-4.3-4.9-2.3,6.1-5.3-13.1-4.5,11.3-3.9-4.3-7.5,10.9-6-18-2.9,10.7-4.9-10.7-11.7,18-7-13.4-6.2,10-5.9-11.2-7.9,16.8-3.3-13.6-5.7,4.5-3.4-5.7-6.8,10.2-4.5-12.5-2.3,4.5-4.5-7.8-6.8,23.6v-13.6l-5.5,10.1-2.4-15.8-5.7,7.9-4.5-7.9-6.8,7.9v-8.3l-7.8,16.2v-20.2s187.1-7,244.9-14.9c41.2-5.7,43.9-13.2,43.9-13.2"/>
        </g>
        <g>
          <path class="cls-10" d="M169.2,247.6l-.3,18.7,6.3-9.3,3.7,3.8,6.6-3.8v18.8l5.6-11.3,3.9,6.5,6.8-5.7,10.2,23.8,7.1-20.4,2,10.2,5.7-3.2,6.7,8.2,1.7-12.2,3.8,7.3,6.6-6.1,8.2,16.1,4.3-10.1,1.9,6.7,11.6-12.2,5.5,15.5,7.7-13.4,3.3,7,2.7-7,10.4,20.2,1.8-13.8,5,5.5,4.3-4.9,2.3,6.1,5.3-13.1,4.5,11.3,3.9-4.3,7.5,10.9,6-18,2.9,10.7,4.9-10.7,11.7,18,7-13.4,6.2,10,5.9-11.2,7.9,16.8,3.3-13.6,5.7,4.5,3.4-5.7,6.8,10.2,4.5-12.5,2.3,4.5,4.5-7.8,6.8,23.6v-13.6l5.5,10.1,2.4-15.8,5.7,7.9,4.5-7.9,6.8,7.9v-8.3l7.8,16.2v-20.2s-187.1-7-244.9-14.9c-41.2-5.7-43.9-13.2-43.9-13.2"/>
          <path class="cls-10" d="M746,247.6l.3,18.7-6.3-9.3-3.7,3.8-6.6-3.8v18.8l-5.6-11.3-3.9,6.5-6.8-5.7-10.2,23.8-7.1-20.4-2,10.2-5.7-3.2-6.7,8.2-1.7-12.2-3.8,7.3-6.6-6.1-8.2,16.1-4.3-10.1-1.9,6.7-11.6-12.2-5.5,15.5-7.7-13.4-3.3,7-2.7-7-10.4,20.2-1.8-13.8-5,5.5-4.3-4.9-2.3,6.1-5.3-13.1-4.5,11.3-3.9-4.3-7.5,10.9-6-18-2.9,10.7-4.9-10.7-11.7,18-7-13.4-6.2,10-5.9-11.2-7.9,16.8-3.3-13.6-5.7,4.5-3.4-5.7-6.8,10.2-4.5-12.5-2.3,4.5-4.5-7.8-6.8,23.6v-13.6l-5.5,10.1-2.4-15.8-5.7,7.9-4.5-7.9-6.8,7.9v-8.3l-7.8,16.2v-20.2s187.1-7,244.9-14.9c41.2-5.7,43.9-13.2,43.9-13.2"/>
        </g>
        <ellipse class="cls-3" cx="458.1" cy="222.6" rx="288.9" ry="28.1"/>
        <g>
          <ellipse class="cls-31" cx="344.1" cy="76" rx="13" ry="16"/>
          <path class="cls-34" d="M345.5,104.2h-3.2s-1.9-19.7.9-23.8c.3-.4,1.2-.4,1.5,0,2.7,4.1.9,23.8.9,23.8h0Z"/>
          <path class="cls-34" d="M342.7,81.4s-4.1-5.6-5.3-4.4c-1.3,1.3,5,5.6,5,5.6l.4-1.2h0Z"/>
          <path class="cls-34" d="M345.8,85.6s3.2-5.4,3.6-4.7c.5.8-3.5,6.1-3.5,6.1v-1.4c-.1,0,0,0,0,0Z"/>
          <path class="cls-34" d="M343.1,80.7s1-7.6,2.4-7.2-1.1,7.9-1.1,7.9l-1.3-.7Z"/>
          <ellipse class="cls-28" cx="352.9" cy="69.9" rx="2.6" ry="5.8" transform="translate(-.1 139.2) rotate(-22.3)"/>
        </g>
        <g>
          <ellipse class="cls-31" cx="297.6" cy="87.3" rx="13" ry="16"/>
          <path class="cls-34" d="M299,115.5h-3.2s-1.9-19.7.9-23.8c.3-.4,1.2-.4,1.5,0,2.7,4.1.9,23.8.9,23.8h0Z"/>
          <path class="cls-34" d="M296.2,92.8s-4.1-5.6-5.3-4.4c-1.3,1.3,5,5.6,5,5.6l.4-1.2h0Z"/>
          <path class="cls-34" d="M299.3,97s3.2-5.4,3.6-4.7c.5.8-3.5,6.1-3.5,6.1v-1.4c-.1,0,0,0,0,0Z"/>
          <path class="cls-34" d="M296.6,92s1-7.6,2.4-7.2-1.1,7.9-1.1,7.9l-1.3-.7Z"/>
          <ellipse class="cls-28" cx="306.4" cy="81.3" rx="2.6" ry="5.8" transform="translate(-7.9 122.4) rotate(-22.3)"/>
        </g>
        <g>
          <ellipse class="cls-31" cx="242" cy="132.7" rx="13" ry="16"/>
          <path class="cls-34" d="M243.4,160.9h-3.2s-1.9-19.7.9-23.8c.3-.4,1.2-.4,1.5,0,2.7,4.1.9,23.8.9,23.8h0Z"/>
          <path class="cls-34" d="M240.6,138.2s-4.1-5.6-5.3-4.4c-1.3,1.3,4.9,5.6,4.9,5.6l.4-1.2h0Z"/>
          <path class="cls-34" d="M243.7,142.4s3.2-5.4,3.6-4.7c.5.8-3.5,6.1-3.5,6.1v-1.4c-.1,0-.1,0-.1,0Z"/>
          <path class="cls-34" d="M241,137.4s1-7.6,2.4-7.2-1.1,7.9-1.1,7.9l-1.3-.7Z"/>
          <ellipse class="cls-28" cx="250.8" cy="126.7" rx="2.6" ry="5.8" transform="translate(-29.3 104.7) rotate(-22.3)"/>
        </g>
        <g>
          <ellipse class="cls-31" cx="325.5" cy="83.2" rx="10.2" ry="12.6"/>
          <path class="cls-34" d="M326.5,105.3h-2.5s-1.5-15.4.7-18.7c.2-.3,1-.3,1.2,0,2.1,3.2.7,18.7.7,18.7h0Z"/>
          <path class="cls-34" d="M324.4,87.5s-3.2-4.4-4.2-3.5c-1,1.1,3.9,4.4,3.9,4.4l.3-.9h0Z"/>
          <path class="cls-34" d="M326.8,90.8s2.5-4.2,2.8-3.7c.4.7-2.7,4.8-2.7,4.8v-1.1h0Z"/>
          <path class="cls-34" d="M324.7,86.8s.8-6,1.9-5.6-.9,6.2-.9,6.2l-1.1-.5Z"/>
          <ellipse class="cls-28" cx="332.3" cy="78.4" rx="2" ry="4.6" transform="translate(-4.9 132) rotate(-22.3)"/>
        </g>
        <path class="cls-26" d="M288.7,223.3s63.2-88.4,131.5-88.4,152.8,88.4,152.8,88.4h-284.3Z"/>
        <path class="cls-26" d="M191.1,223.3s71.3-120.3,148.3-120.3,172.4,120.3,172.4,120.3H191.1Z"/>
        <path class="cls-31" d="M380.1,223.3s31.8-89.9,47.6-88.4c76,7.2,145.2,88.4,145.2,88.4h-192.9Z"/>
        <path class="cls-31" d="M306.4,201.6s22.7-99.1,38.6-98.5c39.7,1.4,78.3,31.9,78.3,31.9,0,0-30.4.7-57.9,15.9-26.1,14.5-59,50.7-59,50.7h0Z"/>
        <g>
          <ellipse class="cls-31" cx="313" cy="104.7" rx="10.2" ry="12.6"/>
          <path class="cls-34" d="M314.1,126.9h-2.5s-1.5-15.4.7-18.7c.2-.3,1-.3,1.2,0,2.1,3.2.7,18.7.7,18.7h0Z"/>
          <path class="cls-34" d="M311.9,109s-3.2-4.4-4.2-3.5c-1,1.1,3.9,4.4,3.9,4.4l.3-.9h0Z"/>
          <path class="cls-34" d="M314.3,112.3s2.5-4.2,2.8-3.7c.4.7-2.7,4.8-2.7,4.8v-1.1h0Z"/>
          <path class="cls-34" d="M312.2,108.4s.8-6,1.9-5.6-.9,6.2-.9,6.2l-1.1-.5Z"/>
          <ellipse class="cls-28" cx="319.9" cy="100" rx="2" ry="4.6" transform="translate(-14 128.9) rotate(-22.3)"/>
        </g>
        <g>
          <ellipse class="cls-31" cx="277.8" cy="110.4" rx="10.2" ry="12.6"/>
          <path class="cls-34" d="M278.9,132.5h-2.5s-1.5-15.4.7-18.7c.2-.3,1-.3,1.2,0,2.1,3.2.7,18.7.7,18.7h0Z"/>
          <path class="cls-34" d="M276.7,114.7s-3.2-4.4-4.2-3.5c-1,1.1,3.9,4.4,3.9,4.4l.3-.9h0Z"/>
          <path class="cls-34" d="M279.1,118s2.5-4.2,2.8-3.7c.4.7-2.7,4.8-2.7,4.8v-1.1h0Z"/>
          <path class="cls-34" d="M277,114.1s.8-6,1.9-5.6-.9,6.2-.9,6.2l-1.1-.5Z"/>
          <ellipse class="cls-28" cx="284.7" cy="105.6" rx="2" ry="4.6" transform="translate(-18.8 116) rotate(-22.3)"/>
        </g>
        <ellipse class="cls-31" cx="602.3" cy="138.2" rx="35.2" ry="49.9"/>
        <path class="cls-34" d="M606.2,225.6h-9.9s-5.7-60.3,2.7-72.8c.8-1.2,3.7-1.2,4.5,0,8.4,12.5,2.7,72.8,2.7,72.8h0Z"/>
        <path class="cls-34" d="M597.5,155.6s-13-17.9-16.8-13.9c-4.1,4.3,15.7,17.8,15.7,17.8l1.1-3.8Z"/>
        <path class="cls-34" d="M607.4,168.9s10.7-15.8,11.9-13.6c1.5,2.6-11.6,18-11.6,18l-.3-4.4Z"/>
        <path class="cls-34" d="M598.9,153.1s3.2-24.1,7.7-22.7-3.4,24.9-3.4,24.9l-4.3-2.2h0Z"/>
        <ellipse class="cls-28" cx="622.1" cy="115.5" rx="8.5" ry="19.3" transform="translate(2.7 244.8) rotate(-22.3)"/>
        <g>
          <ellipse class="cls-31" cx="648.2" cy="168.9" rx="26.7" ry="32.9"/>
          <path class="cls-34" d="M651,226.7h-6.7s-3.8-40.3,1.8-48.7c.5-.8,2.5-.8,3,0,5.6,8.4,1.8,48.7,1.8,48.7h0Z"/>
          <path class="cls-34" d="M645.3,180.1s-8.4-11.6-10.9-9c-2.7,2.8,10.2,11.5,10.2,11.5l.7-2.5h0Z"/>
          <path class="cls-34" d="M651.7,188.7s6.5-11.1,7.3-9.6c1,1.7-7.1,12.5-7.1,12.5l-.2-2.9h0Z"/>
          <path class="cls-34" d="M646.2,178.5s2-15.6,5-14.7c2.8.9-2.2,16.1-2.2,16.1l-2.8-1.4Z"/>
          <ellipse class="cls-28" cx="666.2" cy="156.5" rx="5.3" ry="11.9" transform="translate(-9.5 264.6) rotate(-22.3)"/>
        </g>
        <g>
          <ellipse class="cls-31" cx="247.2" cy="191.5" rx="20.4" ry="25.2"/>
          <path class="cls-34" d="M245,235.8h5.1s2.9-30.9-1.4-37.3c-.4-.6-1.9-.6-2.3,0-4.3,6.4-1.4,37.3-1.4,37.3h0Z"/>
          <path class="cls-34" d="M249.4,200.1s6.4-8.9,8.3-6.9c2,2.1-7.8,8.8-7.8,8.8l-.6-1.9Z"/>
          <path class="cls-34" d="M244.6,206.7s-5-8.5-5.6-7.4c-.8,1.3,5.5,9.6,5.5,9.6l.2-2.2h0Z"/>
          <path class="cls-34" d="M248.8,198.8s-1.6-11.9-3.8-11.3,1.7,12.3,1.7,12.3l2.1-1.1Z"/>
          <ellipse class="cls-28" cx="233.4" cy="182" rx="9.1" ry="4" transform="translate(-23.5 328.9) rotate(-67.7)"/>
        </g>
        <g>
          <ellipse class="cls-31" cx="357.2" cy="199.4" rx="20.4" ry="25.2"/>
          <path class="cls-34" d="M355.1,243.7h5.1s2.9-30.9-1.4-37.3c-.4-.6-1.9-.6-2.3,0-4.3,6.4-1.4,37.3-1.4,37.3h0Z"/>
          <path class="cls-34" d="M359.5,208s6.5-8.9,8.3-6.9c2,2.1-7.8,8.8-7.8,8.8l-.6-1.9Z"/>
          <path class="cls-34" d="M354.6,214.6s-5-8.5-5.6-7.4c-.8,1.3,5.5,9.6,5.5,9.6l.2-2.2h0Z"/>
          <path class="cls-34" d="M358.8,206.8s-1.6-11.9-3.8-11.3c-2.1.6,1.7,12.3,1.7,12.3l2.1-1.1h0Z"/>
          <ellipse class="cls-28" cx="343.5" cy="189.9" rx="9.1" ry="4" transform="translate(37.4 435.6) rotate(-67.7)"/>
        </g>
        <g>
          <ellipse class="cls-31" cx="279.2" cy="173.6" rx="28.7" ry="35.4"/>
          <path class="cls-34" d="M276.2,235.8h7.1s4.1-43.4-2-52.4c-.6-.9-2.7-.9-3.2,0-6,9-2,52.4-2,52.4h0Z"/>
          <path class="cls-34" d="M282.4,185.7s9.1-12.4,11.7-9.7c2.9,3-10.9,12.4-10.9,12.4l-.8-2.7Z"/>
          <path class="cls-34" d="M275.6,194.9s-7-11.9-7.9-10.3c-1,1.8,7.7,13.4,7.7,13.4l.2-3.1h0Z"/>
          <path class="cls-34" d="M281.4,183.9s-2.2-16.8-5.4-15.8c-3,.9,2.4,17.3,2.4,17.3l3-1.5h0Z"/>
          <ellipse class="cls-28" cx="260" cy="160.3" rx="12.8" ry="5.7" transform="translate(13 339.9) rotate(-67.7)"/>
        </g>
      </g>
      <g id="Layer_5">
        <path class="cls-8" d="M278.2,1046.7c26.7,17.6,61.9,48.6,119,49.5,71.7,1.2,80.9-29.4,121.9-47.1,36.5-15.7,86.4-2.5,142-30.5,37.9-19.1,55.8-139.8,55.8-139.8H79.9s36.7,123,77.4,143.1c22.3,11,95.4,17.4,120.9,24.8"/>
        <path class="cls-18" d="M733.9,839.8H69.9v82h.2s0,0,0,0c0,16.7,148.6,30.2,331.9,30.2s331.9-13.5,331.9-30.2,0,0,0,0h0v-82h0Z"/>
        <g class="cls-30">
          <path class="cls-24" d="M69.9,898.5s15.1-10.2,24.8-9.7c8.7.4,18.7,11,27.5,11.1,8.8,0,20-11.3,29.1-11.1,11.9.2,23.9,16,35.8,16.2,10.5.2,23-13.7,33.4-13.1,11.1.6,18,16.7,29.1,17.2,12.1.5,25.6-16,37.8-15.7,13.7.3,25.3,19.5,39,19.8,12.7.2,25.6-16.8,38.3-17.2,14.7-.4,34,18.3,48.6,17.2s22.2-20.6,37.3-20.7c10.8,0,16.5,12,27.2,11.9,15.7-.1,22.4-20,38.1-20.3,12.5-.3,20.9,13.7,33.4,13.8,12.8,0,22.5-13.8,35.3-13.8,14.1,0,24.5,16.2,38.5,15.8,12.8-.3,18.3-15.2,31.1-15.8,13.4-.7,34.9,13,48.4,13,15.1,0,31.1-18.2,31.1-18.2v13.8s-17.9,17.8-31.6,18c-12.7.2-30.5-17-43.1-16.4-14.9.7-21,22.5-36,22.7-13.5.2-22.2-19.1-35.7-19.2s-24.2,19.5-38.1,19.2c-13-.3-19.4-19.3-32.4-19.2-16,0-23.1,24.5-39.1,24.3-12-.1-15.4-16.4-27.2-16.5-16.2,0-21.7,24.3-38.3,25.4-14.5,1-30.8-17.5-45.4-17.6-12.6-.1-27.9,15.8-40.5,15.5-13.3-.4-25.7-18.2-39-18.6-11.8-.3-26,15.2-37.8,14.6-10.7-.5-18.4-15.6-29.1-16.2-10.4-.5-23.1,12.8-33.4,12.6-11.9-.2-23.9-15.7-35.8-16-9-.2-20.1,11-29.1,10.9s-18.8-10.4-27.5-10.9c-9.4-.6-24.8,6.5-24.8,6.5v-13.2h0Z"/>
        </g>
        <ellipse class="cls-29" cx="402" cy="839.9" rx="331.9" ry="30.2"/>
        <path class="cls-14" d="M716.9,831.8c-246,17-573.4,17.9-612.7,10.9-50.3-8.9,23.7-22.9,60.7-22.9"/>
        <path class="cls-18" d="M146.3,831.8s74.9-78,141.6-78,136.3,78,136.3,78H146.3Z"/>
        <path class="cls-14" d="M146.3,831.8s44.6-45,89.6-65c4.1-1.8-60,65-60,65h-29.6Z"/>
        <path class="cls-8" d="M203.3,831.8s64.6-91,161.6-89c84.3,1.7,157,89,157,89H203.3Z"/>
        <path class="cls-14" d="M203.3,831.8s49.6-65,108.6-81c5.9-1.6-79,81-79,81h-29.6Z"/>
        <path class="cls-18" d="M272.4,831.8s78.4-100.1,163-100.1,189.5,100.1,189.5,100.1h-352.5Z"/>
        <path class="cls-14" d="M272.3,831.8s62.6-75,117.6-91c5.8-1.7-88,91-88,91h-29.6Z"/>
        <path class="cls-8" d="M380.3,831.8s62.9-83,130.7-83,151.9,83,151.9,83h-282.6,0Z"/>
        <path class="cls-14" d="M379.9,831.8s35.8-45.6,75.7-65.1c3.7-1.8-48.2,65.1-48.2,65.1h-27.5Z"/>
        <path class="cls-18" d="M466.3,831.8s55.7-61,115.9-61,134.7,61,134.7,61h-250.6Z"/>
        <g class="cls-30">
          <path class="cls-24" d="M546.9,831.8s28-62,42-61c67,5,128,61,128,61h-170Z"/>
        </g>
        <path class="cls-14" d="M465.9,831.8s22.4-25.2,59.7-44.1c3.6-1.8-32.7,44.1-32.7,44.1h-26.9Z"/>
        <g>
          <path class="cls-18" d="M504,858.8s7.8-22,16.2-22,18.8,22,18.8,22h-35,0Z"/>
          <g class="cls-30">
            <path class="cls-24" d="M515.2,858.8s3.9-22.4,5.9-22c9.3,1.8,17.8,22,17.8,22h-23.7,0Z"/>
          </g>
          <path class="cls-14" d="M503.9,858.8s3.9-10.5,8-15.9c.5-.7-4.2,15.9-4.2,15.9h-3.8Z"/>
        </g>
        <g>
          <path class="cls-18" d="M637.2,847.8s8.8-25,18.4-25,21.3,25,21.3,25h-39.7Z"/>
          <g class="cls-30">
            <path class="cls-24" d="M650,847.8s4.4-25.4,6.7-25c10.6,2,20.3,25,20.3,25h-26.9Z"/>
          </g>
          <path class="cls-14" d="M637.2,847.8s4.4-11.9,9-18c.6-.8-4.8,18-4.8,18h-4.3Z"/>
        </g>
        <g>
          <path class="cls-18" d="M624.5,850.8s5.7-16,11.8-16,13.7,16,13.7,16h-25.4,0Z"/>
          <g class="cls-30">
            <path class="cls-24" d="M632.7,850.8s2.8-16.3,4.3-16c6.8,1.3,13,16,13,16h-17.2Z"/>
          </g>
          <path class="cls-14" d="M624.5,850.8s2.8-7.6,5.8-11.5c.4-.5-3,11.5-3,11.5h-2.7Z"/>
        </g>
        <g>
          <path class="cls-18" d="M266,849.8s4.6-10,9.5-10,11,10,11,10h-20.5Z"/>
          <g class="cls-30">
            <path class="cls-24" d="M272.6,849.8s2.3-10.2,3.4-10c5.5.8,10.5,10,10.5,10h-13.9Z"/>
          </g>
          <path class="cls-14" d="M265.9,849.8s2.3-4.8,4.7-7.2c.3-.3-2.5,7.2-2.5,7.2h-2.2Z"/>
        </g>
        <g>
          <path class="cls-18" d="M134,849.8s5.4-15,11.3-15,13.2,15,13.2,15h-24.5,0Z"/>
          <g class="cls-30">
            <path class="cls-24" d="M141.9,849.8s2.7-15.2,4.1-15c6.6,1.2,12.5,15,12.5,15h-16.6Z"/>
          </g>
          <path class="cls-14" d="M133.9,849.8s2.7-7.1,5.6-10.8c.4-.5-2.9,10.8-2.9,10.8h-2.6Z"/>
        </g>
        <g>
          <path class="cls-18" d="M231,853.8s9.3-26.4,19.4-26.4,22.5,26.4,22.5,26.4h-41.9,0Z"/>
          <g class="cls-30">
            <path class="cls-24" d="M244.5,853.8s4.7-26.8,7-26.4c11.2,2.2,21.4,26.4,21.4,26.4h-28.4Z"/>
          </g>
          <path class="cls-14" d="M230.9,853.8s4.7-12.5,9.5-19c.6-.8-5,19-5,19h-4.5Z"/>
        </g>
        <g>
          <path class="cls-18" d="M431,858.8s7.8-22,16.2-22,18.8,22,18.8,22h-35,0Z"/>
          <g class="cls-30">
            <path class="cls-24" d="M442.2,858.8s3.9-22.4,5.9-22c9.3,1.8,17.9,22,17.9,22h-23.7Z"/>
          </g>
          <path class="cls-14" d="M430.9,858.8s3.9-10.5,8-15.9c.5-.7-4.2,15.9-4.2,15.9h-3.8Z"/>
        </g>
        <g>
          <path class="cls-18" d="M452,861.8s13.3-36,27.7-36,32.2,36,32.2,36h-59.9Z"/>
          <g class="cls-30">
            <path class="cls-24" d="M471.3,861.8s6.7-36.6,10-36c16,3,30.6,36,30.6,36h-40.6Z"/>
          </g>
          <path class="cls-14" d="M451.9,861.8s6.7-17.1,13.6-26c.9-1.1-7.2,26-7.2,26h-6.4Z"/>
        </g>
        <g>
          <path class="cls-18" d="M146,853.8s13.3-36,27.7-36,32.2,36,32.2,36h-59.9,0Z"/>
          <g class="cls-30">
            <path class="cls-24" d="M165.3,853.8s6.7-36.6,10-36c16,3,30.6,36,30.6,36h-40.6Z"/>
          </g>
          <path class="cls-14" d="M145.9,853.8s6.7-17.1,13.6-26c.9-1.1-7.2,26-7.2,26h-6.4Z"/>
        </g>
        <g class="cls-30">
          <path class="cls-24" d="M481.9,816.8s20-68.4,34-68c35,1,69,22,69,22,0,0-26.8.5-51,11-23,10-52,35-52,35Z"/>
        </g>
        <g class="cls-30">
          <path class="cls-24" d="M412.9,796.8s11-65.4,25-65c35,1,70,17,70,17,0,0-17-1-40,10-30.3,14.5-55,38-55,38Z"/>
        </g>
        <g>
          <path class="cls-18" d="M191,857.8s13.6-19.5,28.2-19.5,32.7,19.5,32.7,19.5h-60.9Z"/>
          <g class="cls-30">
            <path class="cls-24" d="M210.6,857.8s6.8-19.8,10.2-19.5c16.3,1.6,31.1,19.5,31.1,19.5h-41.3Z"/>
          </g>
          <path class="cls-14" d="M190.9,857.8s6.8-9.3,13.9-14c.9-.6-7.3,14-7.3,14h-6.6,0Z"/>
        </g>
      </g>
    </g>
  </g>
</svg>