<?xml version="1.0" encoding="UTF-8"?>
<svg id="Layer_1" xmlns="http://www.w3.org/2000/svg" viewBox="0 0 499 535">
  <defs>
    <style>
      .cls-1, .cls-2, .cls-3, .cls-4, .cls-5, .cls-6, .cls-7 {
        fill: #140f50;
      }

      .cls-8 {
        fill: #09892a;
      }

      .cls-2 {
        font-size: 24px;
      }

      .cls-2, .cls-4, .cls-5, .cls-6, .cls-7 {
        font-family: Lato-Regular, Lato;
      }

      .cls-3 {
        font-family: Lato-Bold, Lato;
        font-weight: 700;
      }

      .cls-3, .cls-4, .cls-6, .cls-7 {
        font-size: 12px;
      }

      .cls-5 {
        font-size: 10px;
      }

      .cls-9, .cls-7 {
        letter-spacing: 0em;
      }

      .cls-10 {
        stroke: #93278f;
      }

      .cls-10, .cls-11, .cls-12, .cls-13 {
        stroke-linecap: round;
      }

      .cls-10, .cls-11, .cls-12, .cls-13, .cls-14 {
        fill: none;
        stroke-miterlimit: 10;
      }

      .cls-15 {
        fill: #f3f3f6;
      }

      .cls-11 {
        stroke: #ed1c24;
      }

      .cls-12 {
        stroke: #09892a;
      }

      .cls-13 {
        stroke: #1448ff;
      }

      .cls-16 {
        fill: #1448ff;
      }

      .cls-14 {
        stroke: gray;
        stroke-width: .5px;
      }

      .cls-6 {
        letter-spacing: 0em;
      }

      .cls-17 {
        fill: #93278f;
      }

      .cls-18 {
        letter-spacing: -.05em;
      }

      .cls-19 {
        fill: #ed1c25;
      }

      .cls-20 {
        letter-spacing: -.02em;
      }

      .cls-21 {
        letter-spacing: -.01em;
      }

      .cls-22 {
        letter-spacing: -.01em;
      }

      .cls-23 {
        letter-spacing: -.02em;
      }

      .cls-24 {
        letter-spacing: -.04em;
      }

      .cls-25 {
        letter-spacing: -.03em;
      }
    </style>
  </defs>
  <text class="cls-5" transform="translate(60.38 362.94)"><tspan x="0" y="0">0.001</tspan></text>
  <text class="cls-5" transform="translate(135.38 362.94)"><tspan x="0" y="0">0.01</tspan></text>
  <text class="cls-5" transform="translate(213.38 362.94)"><tspan x="0" y="0">0.1</tspan></text>
  <text class="cls-5" transform="translate(292.38 362.94)"><tspan x="0" y="0">1</tspan></text>
  <text class="cls-5" transform="translate(358.5 363.31)"><tspan x="0" y="0">10</tspan></text>
  <text class="cls-5" transform="translate(48.5 290.31)"><tspan x="0" y="0">10</tspan></text>
  <text class="cls-5" transform="translate(60.1 286.98) scale(.58)"><tspan x="0" y="0">0</tspan></text>
  <text class="cls-5" transform="translate(48.5 347.31)"><tspan x="0" y="0">10</tspan></text>
  <text class="cls-5" transform="translate(60.1 343.98) scale(.58)"><tspan x="0" y="0">-1</tspan></text>
  <text class="cls-5" transform="translate(48.5 227.31)"><tspan x="0" y="0">10</tspan></text>
  <text class="cls-5" transform="translate(60.1 223.98) scale(.58)"><tspan x="0" y="0">1</tspan></text>
  <text class="cls-5" transform="translate(48.5 158.31)"><tspan x="0" y="0">10</tspan></text>
  <text class="cls-5" transform="translate(60.1 154.98) scale(.58)"><tspan x="0" y="0">2</tspan></text>
  <text class="cls-5" transform="translate(48.5 96.31)"><tspan x="0" y="0">10</tspan></text>
  <text class="cls-5" transform="translate(60.1 92.98) scale(.58)"><tspan x="0" y="0">3</tspan></text>
  <text class="cls-5" transform="translate(48.5 34.31)"><tspan x="0" y="0">10</tspan></text>
  <text class="cls-5" transform="translate(60.1 30.98) scale(.58)"><tspan x="0" y="0">4</tspan></text>
  <text class="cls-5" transform="translate(438.5 295.31)"><tspan x="0" y="0">10</tspan></text>
  <text class="cls-5" transform="translate(450.1 291.98) scale(.58)"><tspan x="0" y="0">1</tspan></text>
  <text class="cls-5" transform="translate(437.5 228.31)"><tspan x="0" y="0">10</tspan></text>
  <text class="cls-5" transform="translate(449.1 224.98) scale(.58)"><tspan x="0" y="0">2</tspan></text>
  <text class="cls-5" transform="translate(437.5 163.31)"><tspan x="0" y="0">10</tspan></text>
  <text class="cls-5" transform="translate(449.1 159.98) scale(.58)"><tspan x="0" y="0">3</tspan></text>
  <text class="cls-5" transform="translate(437.5 98.31)"><tspan x="0" y="0">10</tspan></text>
  <text class="cls-5" transform="translate(449.1 94.98) scale(.58)"><tspan x="0" y="0">4</tspan></text>
  <text class="cls-5" transform="translate(437.5 33.31)"><tspan x="0" y="0">10</tspan></text>
  <text class="cls-5" transform="translate(449.1 29.98) scale(.58)"><tspan x="0" y="0">5</tspan></text>
  <text class="cls-5" transform="translate(421.5 363.31)"><tspan x="0" y="0">100</tspan></text>
  <text class="cls-2" transform="translate(191.87 384.73) scale(.58)"><tspan x="0" y="0">G</tspan><tspan class="cls-20" x="17.62" y="0">r</tspan><tspan x="26.83" y="0">ain diameter (mm)</tspan></text>
  <text class="cls-2" transform="translate(38.64 280.06) rotate(-90) scale(.58)"><tspan class="cls-25" x="0" y="0">F</tspan><tspan x="12.86" y="0">rictional shear </tspan><tspan class="cls-21" x="167.42" y="0">v</tspan><tspan x="179.4" y="0">elocity </tspan><tspan class="cls-23" x="254.68" y="0">(</tspan><tspan x="261.5" y="0">cm</tspan><tspan class="cls-18" x="292.41" y="0">/</tspan><tspan x="300.09" y="0">s)</tspan></text>
  <text class="cls-2" transform="translate(484.64 265.01) rotate(-90) scale(.58)"><tspan x="0" y="0">Mean flow </tspan><tspan class="cls-22" x="115.41" y="0">v</tspan><tspan class="cls-9" x="127.39" y="0">elocity </tspan><tspan class="cls-23" x="202.68" y="0">(</tspan><tspan x="209.49" y="0">cm</tspan><tspan class="cls-18" x="240.4" y="0">/</tspan><tspan x="248.08" y="0">s)</tspan></text>
  <g>
    <path class="cls-13" d="M119.75,343.93c41.25-18.9,76.35-35.43,123.75-42.43,18.52-2.74,41.86-5.47,59-13,14.41-6.33,25.95-17.03,39.53-24.99,8.45-4.95,17.49-8.79,26.5-12.62,20.63-8.76,41.35-17.64,61.98-26.4"/>
    <path class="cls-13" d="M243.67,301.59c20.16-33.01,47.83-60.09,83.83-80.09,33.81-18.78,66.08-33.67,102-48"/>
    <path class="cls-13" d="M187.5,315.5c26-50,47.49-83.45,78-121,5.66-6.97,11.72-13.58,18-20,26.98-27.61,110.5-63.85,146-79"/>
  </g>
  <g>
    <path class="cls-11" d="M80.5,340.5c60.12-28.93,120.32-53.45,184.76-62.25,9.33-1.27,22.81-4.54,31.24-8.75,12-6,21.63-11.15,31-17,23.19-14.47,42.82-20.87,67.91-31.73,11.91-5.15,22.18-10.12,34.09-15.27"/>
    <path class="cls-11" d="M243.5,281.5c22.74-35.15,52.58-63.48,90-83,23-12,87.74-41.17,96-45"/>
    <path class="cls-11" d="M429.5,75.5c-100,41-131.16,67.28-137,72-10.71,8.66-19.37,19.5-28.31,29.98-28.07,32.89-51.82,67.12-70.69,106.02"/>
  </g>
  <g>
    <path class="cls-10" d="M80.5,329.5c50.24-24.99,103.35-48.19,158.92-55.93,11.47-1.6,23.4-1.48,34.3-5.39,29.79-10.68,47.79-27.68,77.22-39.55,15.39-6.21,62.57-29.13,78.57-35.13"/>
    <path class="cls-10" d="M235.5,274.5c21.7-27.8,44.44-55.75,74.36-74.39,8.11-5.05,16.68-9.32,25.26-13.54,32.02-15.74,61.78-29.57,94.38-44.07"/>
    <path class="cls-10" d="M177.82,288.02c16.29-30.52,35.64-59.3,55.65-87.52,14.14-19.94,28.75-39.77,46.64-56.44,24.47-22.8,49.22-34.13,79.39-48.56,20.61-9.86,48.44-24.45,70-32"/>
  </g>
  <g>
    <path class="cls-12" d="M237.5,295.5c20.33-33.97,51.8-61.06,86-81,34.2-19.94,70.43-32.62,106-50"/>
    <path class="cls-12" d="M178.5,310.5c7.08-15.96,17.21-32.15,26.71-46.79,23.72-36.56,46.72-74.41,80.29-102.21,29.67-24.57,66.5-40.01,101.63-55.83,14.25-6.42,28.12-12.74,42.37-19.17"/>
    <path class="cls-12" d="M98.93,342.39c33.03-15.02,66.92-28.16,101.44-39.35,13.94-4.52,24.58-5.7,39.13-7.53,16.15-2.04,34.99-5.7,50-12,5.69-2.39,17.64-9.94,23-13,42-24,73-33,117-54"/>
  </g>
  <g>
    <rect class="cls-15" x="325.93" y="295.53" width="73.07" height="22" rx="4.43" ry="4.43"/>
    <text class="cls-4" transform="translate(334.73 310.59)"><tspan x="0" y="0">No motion</tspan></text>
  </g>
  <g>
    <rect class="cls-15" x="195.01" y="128.37" width="68" height="22" rx="4.43" ry="4.43"/>
    <text class="cls-4" transform="translate(202.91 143.42)"><tspan class="cls-24" x="0" y="0">W</tspan><tspan x="11.7" y="0">ashload</tspan></text>
  </g>
  <g>
    <rect class="cls-15" x="332" y="228.7" width="61.83" height="22" rx="4.43" ry="4.43"/>
    <text class="cls-4" transform="translate(341.27 243.75)"><tspan x="0" y="0">Bedload</tspan></text>
  </g>
  <g>
    <rect class="cls-15" x="304.39" y="176.68" width="97" height="22" rx="4.43" ry="4.43"/>
    <text class="cls-4" transform="translate(311.7 191.73)"><tspan x="0" y="0">Suspended load</tspan></text>
  </g>
  <g id="Graph_border_and_lines">
    <polyline class="cls-14" points="433 28 433 347 75 347 75 28"/>
    <line class="cls-14" x1="75" y1="91" x2="85" y2="91"/>
    <line class="cls-14" x1="75" y1="156" x2="85" y2="156"/>
    <line class="cls-14" x1="75" y1="221" x2="85" y2="221"/>
    <line class="cls-14" x1="75" y1="286" x2="85" y2="286"/>
    <line class="cls-14" x1="423" y1="95" x2="433" y2="95"/>
    <line class="cls-14" x1="423" y1="160" x2="433" y2="160"/>
    <line class="cls-14" x1="423" y1="225" x2="433" y2="225"/>
    <line class="cls-14" x1="423" y1="290" x2="433" y2="290"/>
    <line class="cls-14" x1="366" y1="337" x2="366" y2="347"/>
    <line class="cls-14" x1="292.67" y1="337" x2="292.67" y2="347"/>
    <line class="cls-14" x1="219.33" y1="337" x2="219.33" y2="347"/>
    <line class="cls-14" x1="146" y1="337" x2="146" y2="347"/>
  </g>
  <g>
    <rect class="cls-15" x="75" y="405" width="358" height="116" rx="4.43" ry="4.43"/>
    <g>
      <text class="cls-4" transform="translate(304.39 480.49)"><tspan x="0" y="0">H</tspan></text>
      <text class="cls-4" transform="translate(313.46 484.48) scale(.58)"><tspan x="0" y="0">2</tspan></text>
      <text class="cls-6" transform="translate(317.52 480.49)"><tspan x="0" y="0">O in CH</tspan></text>
      <text class="cls-4" transform="translate(358.77 484.48) scale(.58)"><tspan x="0" y="0">4</tspan></text>
      <text class="cls-4" transform="translate(362.82 480.49)"><tspan x="0" y="0">N</tspan></text>
      <text class="cls-4" transform="translate(371.89 484.48) scale(.58)"><tspan x="0" y="0">2</tspan></text>
      <text class="cls-4" transform="translate(375.95 480.49)"><tspan x="0" y="0" xml:space="preserve"> on Titan</tspan></text>
      <circle class="cls-16" cx="293.5" cy="476.5" r="4.5"/>
      <g>
        <text class="cls-4" transform="translate(304.39 455.82)"><tspan x="0" y="0">Basalt in H</tspan></text>
        <text class="cls-7" transform="translate(360.53 459.82) scale(.58)"><tspan x="0" y="0">2</tspan></text>
        <text class="cls-6" transform="translate(364.58 455.82)"><tspan x="0" y="0">O on Mars</tspan></text>
        <circle class="cls-19" cx="293.5" cy="451.5" r="4.5"/>
        <path class="cls-1" d="M282,451.67s-1.69-3.11-4.52-3.11-4.52,3.11-4.52,3.11c0,0,1.69,3.11,4.52,3.11s4.52-3.11,4.52-3.11M273.63,451.67c.27-.42.59-.8.94-1.15.73-.73,1.72-1.39,2.92-1.39s2.19.66,2.92,1.39c.35.35.66.74.94,1.15-.03.05-.07.1-.11.16-.19.27-.47.63-.83.99-.73.73-1.72,1.39-2.92,1.39s-2.19-.66-2.92-1.39c-.35-.35-.66-.74-.94-1.15h0Z"/>
        <path class="cls-1" d="M277.48,450.26c-.78,0-1.41.63-1.41,1.41s.63,1.41,1.41,1.41,1.41-.63,1.41-1.41-.63-1.41-1.41-1.41M275.51,451.67c0-1.09.88-1.98,1.98-1.98s1.98.88,1.98,1.98-.88,1.98-1.98,1.98-1.98-.88-1.98-1.98"/>
      </g>
      <g>
        <text class="cls-4" transform="translate(117.29 455.49)"><tspan x="0" y="0">Quartz in H</tspan></text>
        <text class="cls-4" transform="translate(177.93 459.48) scale(.58)"><tspan x="0" y="0">2</tspan></text>
        <text class="cls-4" transform="translate(181.99 455.49)"><tspan x="0" y="0">O on Earth</tspan></text>
        <circle class="cls-17" cx="106.4" cy="451.5" r="4.5"/>
        <path class="cls-1" d="M94.9,451.67s-1.69-3.11-4.52-3.11-4.52,3.11-4.52,3.11c0,0,1.69,3.11,4.52,3.11s4.52-3.11,4.52-3.11M86.53,451.67c.27-.42.59-.8.94-1.15.73-.73,1.72-1.39,2.92-1.39s2.19.66,2.92,1.39c.35.35.66.74.94,1.15-.03.05-.07.1-.11.16-.19.27-.47.63-.83.99-.73.73-1.72,1.39-2.92,1.39s-2.19-.66-2.92-1.39c-.35-.35-.66-.74-.94-1.15h0Z"/>
        <path class="cls-1" d="M90.38,450.26c-.78,0-1.41.63-1.41,1.41s.63,1.41,1.41,1.41,1.41-.63,1.41-1.41-.63-1.41-1.41-1.41M88.41,451.67c0-1.09.88-1.98,1.98-1.98s1.98.88,1.98,1.98-.88,1.98-1.98,1.98-1.98-.88-1.98-1.98"/>
      </g>
      <g>
        <text class="cls-4" transform="translate(117.29 481.15)"><tspan x="0" y="0">Organics in CH</tspan></text>
        <text class="cls-4" transform="translate(196.14 485.15) scale(.58)"><tspan x="0" y="0">4</tspan></text>
        <text class="cls-4" transform="translate(200.2 481.15)"><tspan x="0" y="0">N</tspan></text>
        <text class="cls-4" transform="translate(209.27 485.15) scale(.58)"><tspan x="0" y="0">2</tspan></text>
        <text class="cls-4" transform="translate(213.33 481.15)"><tspan x="0" y="0" xml:space="preserve"> on Titan</tspan></text>
        <circle class="cls-8" cx="106.4" cy="476.5" r="4.5"/>
        <path class="cls-1" d="M94.9,476.67s-1.69-3.11-4.52-3.11-4.52,3.11-4.52,3.11c0,0,1.69,3.11,4.52,3.11s4.52-3.11,4.52-3.11M86.53,476.67c.27-.42.59-.8.94-1.15.73-.73,1.72-1.39,2.92-1.39s2.19.66,2.92,1.39c.35.35.66.74.94,1.15-.03.05-.07.1-.11.16-.19.27-.47.63-.83.99-.73.73-1.72,1.39-2.92,1.39s-2.19-.66-2.92-1.39c-.35-.35-.66-.74-.94-1.15h0Z"/>
        <path class="cls-1" d="M90.38,475.26c-.78,0-1.41.63-1.41,1.41s.63,1.41,1.41,1.41,1.41-.63,1.41-1.41-.63-1.41-1.41-1.41M88.41,476.67c0-1.09.88-1.98,1.98-1.98s1.98.88,1.98,1.98-.88,1.98-1.98,1.98-1.98-.88-1.98-1.98"/>
      </g>
      <path class="cls-1" d="M282,476.67s-1.69-3.11-4.52-3.11-4.52,3.11-4.52,3.11c0,0,1.69,3.11,4.52,3.11s4.52-3.11,4.52-3.11M273.63,476.67c.27-.42.59-.8.94-1.15.73-.73,1.72-1.39,2.92-1.39s2.19.66,2.92,1.39c.35.35.66.74.94,1.15-.03.05-.07.1-.11.16-.19.27-.47.63-.83.99-.73.73-1.72,1.39-2.92,1.39s-2.19-.66-2.92-1.39c-.35-.35-.66-.74-.94-1.15h0Z"/>
      <path class="cls-1" d="M277.48,475.26c-.78,0-1.41.63-1.41,1.41s.63,1.41,1.41,1.41,1.41-.63,1.41-1.41-.63-1.41-1.41-1.41M275.51,476.67c0-1.09.88-1.98,1.98-1.98s1.98.88,1.98,1.98-.88,1.98-1.98,1.98-1.98-.88-1.98-1.98"/>
      <g>
        <text class="cls-4" transform="translate(246.39 506.49)"><tspan x="0" y="0">Labels</tspan></text>
        <g>
          <path class="cls-1" d="M238,502.67s-1.69-3.11-4.52-3.11-4.52,3.11-4.52,3.11c0,0,1.69,3.11,4.52,3.11s4.52-3.11,4.52-3.11M229.63,502.67c.27-.42.59-.8.94-1.15.73-.73,1.72-1.39,2.92-1.39s2.19.66,2.92,1.39c.35.35.66.74.94,1.15-.03.05-.07.1-.11.16-.19.27-.47.63-.83.99-.73.73-1.72,1.39-2.92,1.39s-2.19-.66-2.92-1.39c-.35-.35-.66-.74-.94-1.15h0Z"/>
          <path class="cls-1" d="M233.48,501.26c-.78,0-1.41.63-1.41,1.41s.63,1.41,1.41,1.41,1.41-.63,1.41-1.41-.63-1.41-1.41-1.41M231.51,502.67c0-1.09.88-1.98,1.98-1.98s1.98.88,1.98,1.98-.88,1.98-1.98,1.98-1.98-.88-1.98-1.98"/>
        </g>
      </g>
    </g>
    <text class="cls-3" transform="translate(231.41 428.46)"><tspan x="0" y="0">Visibility</tspan></text>
  </g>
</svg>