<?xml version="1.0" encoding="UTF-8"?>
<svg id="Layer_1" xmlns="http://www.w3.org/2000/svg" viewBox="0 0 461.05 461.73">
  <defs>
    <style>
      .cls-1 {
        fill: white;
      }
    </style>
  </defs>
  <path class="cls-1" d="M382.05,461.73c43.56,0,79-35.44,79-79v-129.34c0-43.56-35.44-79-79-79h-95.39v46h95.39c18.2,0,33,14.8,33,33v129.34c0,18.2-14.8,33-33,33h-102.64c-12.52,27.12-39.97,46-71.75,46"/>
  <path class="cls-1" d="M208.34,461.73H79c-43.56,0-79-35.44-79-79V79C0,35.44,35.44,0,79,0h129.34c43.56,0,79,35.44,79,79v303.73c0,43.56-35.44,79-79,79ZM79,46c-18.2,0-33,14.8-33,33v303.73c0,18.2,14.8,33,33,33h129.34c18.2,0,33-14.8,33-33V79c0-18.2-14.8-33-33-33H79Z"/>
  <path class="cls-1" d="M321.9,18.61h-.55c-9.11,0-16.5,7.39-16.5,16.5s7.39,16.5,16.5,16.5h.45s.03,0,.05,0c9.09,0,16.47-7.36,16.5-16.45.03-9.11-7.34-16.52-16.45-16.55Z"/>
  <path class="cls-1" d="M382.8,35.23c-.36-.21-.73-.42-1.1-.63-7.91-4.52-17.99-1.77-22.51,6.14-4.52,7.91-1.78,17.99,6.14,22.51l.78.45c2.62,1.54,5.5,2.27,8.33,2.27,5.66,0,11.18-2.92,14.25-8.16,4.61-7.86,1.98-17.97-5.88-22.58Z"/>
  <path class="cls-1" d="M421,102.54c7.91-4.52,10.66-14.6,6.13-22.51-.21-.36-.41-.72-.62-1.07-4.6-7.87-14.71-10.51-22.57-5.91-7.87,4.6-10.51,14.71-5.91,22.57l.46.79c3.05,5.33,8.61,8.31,14.34,8.31,2.78,0,5.59-.7,8.18-2.18Z"/>
  <path class="cls-1" d="M443.12,139.78c-.05-9.08-7.43-16.4-16.5-16.4-.03,0-.07,0-.1,0-9.11.05-16.46,7.48-16.4,16.6v.4c0,9.11,7.39,16.5,16.5,16.5s16.5-7.39,16.5-16.5v-.6Z"/>
</svg>